<svg width="275" height="160" viewBox="0 0 275 160" fill="none" xmlns="http://www.w3.org/2000/svg">
<path fill-rule="evenodd" clip-rule="evenodd" d="M85.8699 0.514648C62.0338 0.514648 37.3816 24.9782 37.3816 57.3556C37.3816 68.0607 40.7671 73.8573 41.1697 78.9711C5.60692 78.9711 -8.39272 114.513 5.02712 138.778C12.8971 153.007 25.1306 159.029 42.6847 159.029H230.578C241.95 159.029 253.444 157.189 261.465 149.236C282.459 128.416 277.051 95.9298 254.073 83.7653C245.59 79.2741 243.634 79.751 231.335 79.7717C222.576 79.787 221.218 81.0137 221.021 77.7001C221.018 77.6639 221.885 71.8263 221.939 71.4498C225.734 44.9987 205.509 18.9278 178.301 18.9278C155.756 18.9278 146.978 34.8372 141.177 38.942C135.474 27.5538 133.529 21.2452 123.992 13.0697C110.823 1.78003 102.152 0.514648 85.8699 0.514648Z" fill="url(#paint0_linear_635_236)"/>
<defs>
<linearGradient id="paint0_linear_635_236" x1="137.308" y1="0.514648" x2="137.308" y2="159.029" gradientUnits="userSpaceOnUse">
<stop stop-color="#E4F7FD"/>
<stop offset="1" stop-color="#C3DBE7"/>
</linearGradient>
</defs>
</svg>
