<svg width="284" height="170" viewBox="0 0 284 170" fill="none" xmlns="http://www.w3.org/2000/svg">
<path fill-rule="evenodd" clip-rule="evenodd" d="M45.9968 63.9444C45.9968 33.7242 69.5871 10.8911 92.3965 10.8911C107.978 10.8911 116.275 12.0722 128.877 22.6095C138.002 30.2404 139.865 36.1287 145.322 46.7579C150.873 42.9266 159.272 28.0773 180.847 28.0773C206.883 28.0773 226.237 52.4111 222.605 77.0991C222.553 77.4509 221.724 82.8993 221.726 82.9331C221.915 86.026 223.215 84.8809 231.596 84.867C243.366 84.8477 245.238 84.4024 253.355 88.5941C275.343 99.948 280.519 130.269 260.428 149.702C252.753 157.126 241.754 158.842 230.872 158.842H51.0716C34.2737 158.842 22.5669 153.222 15.0362 139.941C2.19411 117.293 15.5908 84.1195 49.6218 84.1195C49.2362 79.3465 45.9968 73.9361 45.9968 63.9444ZM35.8466 59.4608L36.5718 75.1528C32.1162 75.5349 24.208 79.3246 21.0391 81.5607C6.71807 91.6665 -1.76694 107.402 0.311321 127.469C1.68309 140.713 7.69163 148.948 15.7131 157.176C22.449 164.087 34.8197 169.304 48.1716 169.304H235.222C254.755 169.304 270.263 158.788 278.244 143.406C282.668 134.88 283.072 127.93 283.072 118.492C283.072 100.315 268.778 82.5078 253.633 77.0991C246.937 74.7073 241.783 73.6581 233.047 73.6581C233.047 62.2657 232.765 58.119 227.733 47.7514C215.768 23.0986 187.636 10.7867 161.982 21.3375C153.444 24.8487 154.825 25.014 148.222 29.5717C142.343 20.5234 132.131 9.9549 122.035 5.7499C102.454 -2.4059 82.1784 -2.68563 63.3845 10.1313C58.8891 13.197 53.3169 17.9398 49.9242 22.4112C42.0594 32.7778 35.8466 45.1203 35.8466 59.4608Z" fill="#BEDBED"/>
</svg>
