<svg width="159" height="149" viewBox="0 0 159 149" fill="none" xmlns="http://www.w3.org/2000/svg">
<path d="M147 141.5C147 141.556 146.955 145.397 146.899 145.397L137.057 145.297L127.216 145.197C127.187 145.197 127.159 145.184 127.141 145.162L122.098 139.178C122.079 139.155 122.051 139.142 122.022 139.142L102.776 139.015C102.743 139.015 102.713 138.998 102.694 138.971L94.1655 126.483C94.1472 126.456 94.117 126.44 94.0846 126.439L67.8724 126.01C67.8422 126.009 67.8134 126.022 67.794 126.045L54.855 141.539C54.8108 141.592 54.7276 141.585 54.6923 141.526L49.8494 133.392C49.8306 133.36 49.796 133.342 49.7593 133.343L32.1213 134.086C32.0834 134.087 32.0496 134.11 32.0342 134.145L27.1178 145.163C27.1019 145.199 27.0665 145.222 27.0273 145.223L3.10073 145.397C3.04522 145.398 3 145.353 3 145.297V108.1C3 108.045 3.04477 108 3.1 108H146.9C146.955 108 147 108.045 147 108.1V117.399M3.10001 92.3979H146.9C146.955 92.3979 147 92.3531 147 92.2979V55.1C147 55.0448 146.955 55 146.9 55H3.1C3.04477 55 3 55.0448 3 55.1V92.2979C3 92.3531 3.04478 92.3979 3.10001 92.3979ZM3.10001 40.3975H146.9C146.955 40.3975 147 40.3528 147 40.2976V3.1C147 3.04477 146.955 3 146.9 3H3.1C3.04477 3 3 3.04477 3 3.1V40.2976C3 40.3528 3.04478 40.3975 3.10001 40.3975Z" stroke="white" stroke-width="5.5" stroke-miterlimit="22.9256"/>
<path fill-rule="evenodd" clip-rule="evenodd" d="M11 43H21.0634V53.4693H11V43Z" fill="white"/>
<path fill-rule="evenodd" clip-rule="evenodd" d="M19.584 70C19.584 69.4477 20.0317 69 20.584 69H28.6474C29.1997 69 29.6474 69.4477 29.6474 70V76.5076C29.6474 77.0599 29.1997 77.5076 28.6474 77.5076H20.584C20.0317 77.5076 19.584 77.0599 19.584 76.5076V70Z" fill="white"/>
<path fill-rule="evenodd" clip-rule="evenodd" d="M87 70C87 69.4477 87.4477 69 88 69H96.0634C96.6157 69 97.0634 69.4477 97.0634 70V76.5076C97.0634 77.0599 96.6157 77.5076 96.0634 77.5076H88C87.4477 77.5076 87 77.0599 87 76.5076V70Z" fill="white"/>
<path fill-rule="evenodd" clip-rule="evenodd" d="M102.063 70C102.063 69.4477 102.511 69 103.063 69H111.127C111.679 69 112.127 69.4477 112.127 70V76.5076C112.127 77.0599 111.679 77.5076 111.127 77.5076H103.063C102.511 77.5076 102.063 77.0599 102.063 76.5076V70Z" fill="white"/>
<path fill-rule="evenodd" clip-rule="evenodd" d="M117.127 70C117.127 69.4477 117.575 69 118.127 69H126.19C126.743 69 127.19 69.4477 127.19 70V76.5076C127.19 77.0599 126.743 77.5076 126.19 77.5076H118.127C117.575 77.5076 117.127 77.0599 117.127 76.5076V70Z" fill="white"/>
<path fill-rule="evenodd" clip-rule="evenodd" d="M128 94.9482H138.063V105.417H128V94.9482Z" fill="white"/>
<path fill-rule="evenodd" clip-rule="evenodd" d="M11 94.8252H21.0634V105.294H11V94.8252Z" fill="white"/>
<path fill-rule="evenodd" clip-rule="evenodd" d="M128 43H138.063V53.469H128V43Z" fill="white"/>
<path fill-rule="evenodd" clip-rule="evenodd" d="M20 17C20 16.4477 20.4477 16 21 16H29.0634C29.6157 16 30.0634 16.4477 30.0634 17V23.5079C30.0634 24.0602 29.6157 24.5079 29.0634 24.5079H21C20.4477 24.5079 20 24.0602 20 23.5079V17Z" fill="white"/>
<path fill-rule="evenodd" clip-rule="evenodd" d="M102.063 17C102.063 16.4477 102.511 16 103.063 16H111.127C111.679 16 112.127 16.4477 112.127 17V23.5076C112.127 24.0599 111.679 24.5076 111.127 24.5076H103.063C102.511 24.5076 102.063 24.0599 102.063 23.5076V17Z" fill="white"/>
<path fill-rule="evenodd" clip-rule="evenodd" d="M117.127 17C117.127 16.4477 117.575 16 118.127 16H126.19C126.743 16 127.19 16.4477 127.19 17V23.5076C127.19 24.0599 126.743 24.5076 126.19 24.5076H118.127C117.575 24.5076 117.127 24.0599 117.127 23.5076V17Z" fill="white"/>
<path fill-rule="evenodd" clip-rule="evenodd" d="M87 17C87 16.4477 87.4477 16 88 16H96.0634C96.6157 16 97.0634 16.4477 97.0634 17V23.5076C97.0634 24.0599 96.6157 24.5076 96.0634 24.5076H88C87.4477 24.5076 87 24.0599 87 23.5076V17Z" fill="white"/>
<path d="M158.994 128.489C158.993 128.49 158.992 128.49 158.992 128.489C158.982 128.13 158.95 127.772 158.903 127.42C158.889 127.313 158.805 127.229 158.699 127.211L157.28 126.976C156.922 126.917 156.624 126.669 156.502 126.327L156.159 125.372C156.037 125.031 156.109 124.651 156.347 124.378L156.935 123.703C157.219 123.377 157.265 122.901 157.017 122.545C156.809 122.246 156.586 121.958 156.349 121.681C156.066 121.351 155.591 121.275 155.202 121.47L154.406 121.869C154.082 122.032 153.695 122.006 153.395 121.803L152.555 121.232C152.255 121.028 152.089 120.677 152.122 120.316L152.201 119.424C152.24 118.991 151.996 118.578 151.585 118.436C151.266 118.326 150.94 118.23 150.609 118.149C150.186 118.046 149.758 118.261 149.556 118.647L149.142 119.439C148.974 119.761 148.644 119.966 148.28 119.975L147.266 119.999C146.904 120.008 146.566 119.82 146.381 119.508L145.925 118.736C145.704 118.362 145.265 118.169 144.849 118.293C144.497 118.398 144.153 118.52 143.817 118.658C143.416 118.824 143.197 119.249 143.26 119.678L143.39 120.562C143.443 120.922 143.297 121.282 143.008 121.503L142.201 122.119C141.913 122.339 141.529 122.386 141.197 122.243L140.376 121.888C139.978 121.716 139.509 121.818 139.245 122.163C139.025 122.451 138.818 122.751 138.627 123.062C138.399 123.431 138.471 123.905 138.775 124.216L139.398 124.852C139.652 125.111 139.746 125.487 139.643 125.835L139.355 126.808C139.252 127.155 138.969 127.419 138.616 127.499L137.744 127.696C137.319 127.792 137.001 128.151 136.989 128.585C136.984 128.784 136.984 128.984 136.99 129.184C136.996 129.347 137.006 129.509 137.019 129.669C137.053 130.104 137.392 130.447 137.822 130.519L138.7 130.667C139.058 130.727 139.355 130.976 139.476 131.318L139.815 132.273C139.937 132.615 139.863 132.996 139.623 133.269L139.035 133.936C138.746 134.263 138.7 134.743 138.949 135.102C139.157 135.402 139.379 135.692 139.615 135.969C139.896 136.3 140.369 136.377 140.758 136.183L141.558 135.785C141.883 135.624 142.269 135.65 142.569 135.855L143.407 136.428C143.707 136.633 143.872 136.985 143.838 137.346L143.755 138.236C143.715 138.67 143.958 139.084 144.369 139.228C144.71 139.347 145.058 139.451 145.413 139.537C145.836 139.64 146.265 139.423 146.466 139.037L146.878 138.244C147.045 137.922 147.374 137.715 147.737 137.705L148.75 137.677C149.113 137.666 149.453 137.854 149.638 138.166L150.092 138.932C150.315 139.307 150.756 139.499 151.174 139.372C151.524 139.266 151.867 139.143 152.201 139.005C152.603 138.838 152.823 138.411 152.758 137.981L152.626 137.098C152.572 136.739 152.716 136.38 153.003 136.158L153.808 135.537C154.095 135.315 154.48 135.266 154.813 135.409L155.634 135.761C156.034 135.932 156.502 135.828 156.765 135.482C156.985 135.192 157.19 134.892 157.38 134.582C157.608 134.211 157.533 133.737 157.227 133.427L156.601 132.794C156.346 132.536 156.251 132.159 156.353 131.811L156.638 130.836C156.74 130.487 157.022 130.222 157.376 130.141L158.774 129.824C158.885 129.799 158.966 129.705 158.974 129.592C158.999 129.228 159.007 128.861 158.995 128.49C158.995 128.489 158.994 128.489 158.994 128.489ZM151.246 132.546C149.203 134.339 146.085 134.149 144.282 132.094C142.489 130.043 142.688 126.93 144.736 125.137C146.779 123.331 149.897 123.533 151.694 125.579C153.5 127.631 153.295 130.749 151.246 132.546Z" fill="white"/>
<path d="M153.418 124.079C153.418 124.078 153.417 124.077 153.417 124.077C150.788 121.082 146.219 120.784 143.224 123.416C140.232 126.047 139.936 130.608 142.571 133.609C145.2 136.604 149.766 136.897 152.758 134.268C155.753 131.64 156.047 127.074 153.419 124.082C153.418 124.081 153.418 124.08 153.418 124.079ZM152.292 133.735C149.593 136.106 145.475 135.842 143.104 133.14C140.724 130.435 140.994 126.32 143.693 123.946C146.395 121.572 150.516 121.842 152.887 124.544C155.261 127.243 154.995 131.361 152.292 133.735Z" fill="black"/>
<path d="M150.526 126.047C150.527 126.047 150.526 126.047 150.526 126.047C150.434 125.964 150.339 125.886 150.24 125.814C150.211 125.792 150.171 125.793 150.142 125.815L149.855 126.028C149.688 126.152 149.466 126.176 149.275 126.09L149.208 126.06C149.018 125.974 148.889 125.792 148.871 125.584C148.849 125.335 148.67 125.124 148.421 125.096C148.41 125.095 148.399 125.093 148.387 125.092C148.138 125.066 147.917 125.234 147.842 125.472C147.78 125.671 147.615 125.821 147.411 125.863L147.338 125.879C147.133 125.921 146.922 125.85 146.785 125.692C146.621 125.503 146.351 125.437 146.133 125.561C146.131 125.562 146.128 125.564 146.125 125.565C145.908 125.689 145.827 125.954 145.906 126.191C145.972 126.39 145.925 126.608 145.784 126.762L145.733 126.817C145.592 126.97 145.378 127.035 145.175 126.987C144.932 126.929 144.675 127.033 144.57 127.26C144.565 127.271 144.559 127.282 144.554 127.293C144.452 127.521 144.542 127.782 144.745 127.927C144.915 128.049 145.006 128.253 144.982 128.461L144.973 128.536C144.949 128.743 144.815 128.921 144.623 129.001C144.392 129.097 144.245 129.332 144.294 129.578C144.296 129.589 144.298 129.601 144.301 129.612C144.351 129.857 144.578 130.016 144.828 130.014C145.036 130.012 145.229 130.124 145.332 130.305L145.369 130.37C145.471 130.552 145.468 130.774 145.36 130.953C145.23 131.167 145.249 131.445 145.433 131.615C145.442 131.623 145.451 131.63 145.459 131.638C145.644 131.805 145.921 131.799 146.121 131.651C146.289 131.527 146.511 131.503 146.701 131.59L146.77 131.621C146.96 131.707 147.087 131.889 147.104 132.097C147.124 132.346 147.303 132.558 147.552 132.588C147.564 132.589 147.576 132.59 147.588 132.592C147.836 132.619 148.058 132.452 148.133 132.213C148.196 132.014 148.362 131.865 148.566 131.823L148.639 131.808C148.844 131.766 149.055 131.838 149.191 131.997C149.354 132.186 149.624 132.253 149.842 132.13C149.852 132.125 149.862 132.119 149.872 132.114C150.089 131.989 150.17 131.724 150.091 131.486C150.024 131.289 150.07 131.07 150.211 130.916L150.261 130.861C150.402 130.707 150.615 130.641 150.818 130.689C151.061 130.747 151.318 130.641 151.422 130.414C151.427 130.403 151.432 130.392 151.436 130.382C151.538 130.153 151.448 129.891 151.244 129.746C151.074 129.625 150.983 129.422 151.006 129.215L151.015 129.139C151.038 128.932 151.171 128.753 151.363 128.672C151.594 128.575 151.74 128.339 151.69 128.094C151.688 128.082 151.686 128.071 151.683 128.059C151.632 127.815 151.404 127.657 151.155 127.66C150.946 127.663 150.752 127.552 150.649 127.371L150.611 127.304C150.508 127.124 150.511 126.901 150.619 126.723L150.804 126.418C150.824 126.385 150.82 126.343 150.794 126.315C150.71 126.222 150.622 126.132 150.527 126.047C150.527 126.046 150.526 126.047 150.526 126.047ZM149.682 128.923C149.638 129.854 148.849 130.578 147.913 130.533C146.98 130.487 146.26 129.697 146.305 128.764C146.346 127.831 147.139 127.11 148.071 127.154C149.006 127.197 149.727 127.99 149.682 128.923Z" fill="white"/>
<path d="M148.11 126.371C148.11 126.371 148.11 126.371 148.11 126.371C146.745 126.306 145.584 127.362 145.519 128.727C145.456 130.092 146.51 131.251 147.877 131.315C149.242 131.38 150.401 130.324 150.466 128.96C150.531 127.596 149.475 126.436 148.111 126.372C148.111 126.372 148.11 126.372 148.11 126.371ZM150.223 128.948C150.165 130.178 149.12 131.131 147.889 131.072C146.655 131.015 145.705 129.968 145.762 128.738C145.82 127.506 146.867 126.554 148.098 126.613C149.329 126.67 150.281 127.716 150.223 128.948Z" fill="black"/>
</svg>
