<svg width="179" height="93" viewBox="0 0 179 93" fill="none" xmlns="http://www.w3.org/2000/svg">
<path fill-rule="evenodd" clip-rule="evenodd" d="M0.235396 29.2072C11.8094 19.5697 22.9061 9.95173 34.4805 0.313655C35.2078 -0.261423 36.1964 -0.096505 36.1964 1.23404L36.3383 21.2591C31.4372 25.7155 26.391 30.013 21.4895 34.4694C20.2262 34.8075 19.4106 33.9444 18.6872 34.3516L0 47.6376L0.235396 29.2072Z" fill="url(#paint0_linear_919_294)"/>
<path fill-rule="evenodd" clip-rule="evenodd" d="M38.38 21.3114L38.2891 1.11652C46.5666 8.13992 55.5613 16.1752 63.8388 23.1989C68.3944 23.8919 71.1793 26.576 72.8582 29.7365C72.9468 38.6052 65.6249 41.3779 61.5962 41.4642L38.38 21.3114Z" fill="url(#paint1_linear_919_294)"/>
<path fill-rule="evenodd" clip-rule="evenodd" d="M16.6365 40.1966L29.7294 51.9911C30.2908 52.4968 29.9924 54.0216 29.4148 54.5031L18.7603 63.3877C18.1824 63.8697 16.4041 63.8542 15.8255 63.3709L1.86278 51.717C1.2842 51.2341 1.05269 49.331 1.66699 48.8969L13.8764 40.2611C14.4907 39.8266 16.0758 39.6917 16.6365 40.1966Z" fill="url(#paint2_linear_919_294)"/>
<path fill-rule="evenodd" clip-rule="evenodd" d="M27.586 63.4054L34.4316 56.8768C37.56 53.8931 40.5032 50.1342 44.5949 53.5402L72.2836 76.5914C77.6844 81.0874 69.5004 95.8106 59.4125 91.0718L54.9549 87.5291L53.3188 78.0336C53.2539 77.656 45.2176 70.5046 42.3783 68.194C40.7344 66.8566 38.0551 72.7637 36.3921 74.0765L14.6152 91.267C8.22637 92.9695 -1.83039 91.5988 0.792733 77.1612C4.43569 73.6611 7.53706 71.5948 11.5985 68.201C20.5926 69.7761 21.7378 68.9831 27.586 63.4054Z" fill="url(#paint3_linear_919_294)"/>
<path fill-rule="evenodd" clip-rule="evenodd" d="M27.586 63.4054C21.9219 69.1529 20.5926 69.7764 11.5985 68.201C7.53706 71.5948 4.43569 73.6611 0.792733 77.1612C-1.83039 91.5988 8.22637 92.9695 14.6152 91.267L35.4876 74.7984L35.3607 55.5163L27.586 63.4054Z" fill="#726696"/>
<path fill-rule="evenodd" clip-rule="evenodd" d="M41.181 76.3949L54.9549 87.5291C55.1744 76.4805 51.7566 74.6565 42.7476 67.8095C42.384 67.8316 42.0645 67.8556 41.7223 67.879C41.5099 71.8222 41.4629 72.9605 41.181 76.3949Z" fill="#816CA9"/>
<path fill-rule="evenodd" clip-rule="evenodd" d="M35.7119 20.7351C32.1517 24.1381 19.092 34.2229 19.2007 34.242C19.592 34.3115 21.1683 34.7433 21.5134 34.4415L36.3383 21.2591L36.333 20.4451C36.333 20.3318 35.7882 20.6623 35.7119 20.7351Z" fill="url(#paint4_linear_919_294)"/>
<path fill-rule="evenodd" clip-rule="evenodd" d="M64.4736 24.8708C67.6086 25.7727 71.8954 28.7146 72.4205 30.3337C73.713 34.3171 67.2818 40.4208 62.7105 39.911C53.6198 38.8967 58.1465 23.0508 64.4736 24.8708Z" fill="#9C7BFF"/>
<path fill-rule="evenodd" clip-rule="evenodd" d="M94.43 0C93.454 0 92.5819 0.677325 92.2465 1.69575L86.2831 19.8069C86.0958 20.3758 86 20.9764 86 21.5822V28.7858C86 32.8621 88.9741 36.1667 92.6429 36.1667C96.3116 36.1667 99.2858 32.8621 99.2858 28.7858C99.2858 32.8621 102.26 36.1667 105.929 36.1667C109.597 36.1667 112.571 32.8621 112.571 28.7858C112.571 32.8621 115.546 36.1667 119.214 36.1667C122.881 36.1667 125.854 32.8654 125.857 28.7918C125.86 32.8654 128.833 36.1667 132.5 36.1667C136.169 36.1667 139.143 32.8621 139.143 28.7858C139.143 32.8621 142.117 36.1667 145.786 36.1667C149.453 36.1667 152.426 32.8654 152.429 28.7918C152.431 32.8654 155.405 36.1667 159.071 36.1667C162.74 36.1667 165.714 32.8621 165.714 28.7858C165.714 32.8621 168.688 36.1667 172.357 36.1667C176.026 36.1667 179 32.8621 179 28.7858V21.5822C179 20.9764 178.904 20.3758 178.717 19.8069L172.754 1.69575C172.418 0.677299 171.546 0 170.57 0H94.43Z" fill="#9C7BFF"/>
<path fill-rule="evenodd" clip-rule="evenodd" d="M93.75 39.9825V56.8333H89.875C89.1616 56.8333 88.5833 57.4117 88.5833 58.125V60.7083C88.5833 61.4216 89.1616 62 89.875 62H175.125C175.838 62 176.417 61.4216 176.417 60.7083V58.125C176.417 57.4117 175.838 56.8333 175.125 56.8333H171.25V39.9825C169.278 39.7696 167.525 38.9931 166.083 37.8371V56.8333H98.9167V37.8371C97.4746 38.9931 95.7221 39.7696 93.75 39.9825ZM167.309 33.5833C167.56 33.9091 167.836 34.2103 168.134 34.4834C169.012 35.2876 170.079 35.8463 171.25 36.0646V33.5833H167.309ZM93.75 36.0646V33.5833H97.6911C97.44 33.9091 97.1639 34.2103 96.866 34.4834C95.988 35.2876 94.921 35.8463 93.75 36.0646ZM92.4583 64.5833C91.745 64.5833 91.1667 65.1617 91.1667 65.875V90.4167C91.1667 91.8434 92.3233 93 93.75 93H171.25C172.677 93 173.833 91.8434 173.833 90.4167V65.875C173.833 65.1617 173.255 64.5833 172.542 64.5833H92.4583Z" fill="#9C7BFF"/>
<path d="M101.5 50.375C101.5 49.6617 102.078 49.0833 102.792 49.0833H110.542C111.255 49.0833 111.833 49.6617 111.833 50.375V55.5417C111.833 56.2549 111.255 56.8333 110.542 56.8333H102.792C102.078 56.8333 101.5 56.2549 101.5 55.5417V50.375Z" fill="#9C7BFF"/>
<path d="M106.667 52.9583C106.667 52.2451 107.245 51.6667 107.958 51.6667H115.708C116.422 51.6667 117 52.2451 117 52.9583V55.5417C117 56.2549 116.422 56.8333 115.708 56.8333H107.958C107.245 56.8333 106.667 56.2549 106.667 55.5417V52.9583Z" fill="#9C7BFF"/>
<path d="M127.333 52.9583C127.333 55.0984 125.598 56.8333 123.458 56.8333C121.318 56.8333 119.583 55.0984 119.583 52.9583C119.583 50.8183 121.318 49.0833 123.458 49.0833C125.598 49.0833 127.333 50.8183 127.333 52.9583Z" fill="#9C7BFF"/>
<path d="M107.01 10.7461C107.01 11.1107 106.88 11.4167 106.619 11.6641C106.372 11.9245 106.066 12.0547 105.701 12.0547H97.8887C97.6413 12.0677 97.4329 12.1263 97.2637 12.2305C97.1074 12.3216 96.9902 12.4323 96.9121 12.5625C96.834 12.6797 96.7949 12.8034 96.7949 12.9336C96.7949 13.0638 96.834 13.194 96.9121 13.3242C96.9902 13.4414 97.1074 13.5521 97.2637 13.6562C97.4329 13.7474 97.6413 13.7995 97.8887 13.8125H103.436C104.347 13.8385 105.096 14.0534 105.682 14.457C106.281 14.8477 106.704 15.3034 106.951 15.8242C107.212 16.332 107.342 16.8529 107.342 17.3867C107.342 17.9076 107.212 18.4284 106.951 18.9492C106.691 19.457 106.268 19.9128 105.682 20.3164C105.096 20.707 104.347 20.9023 103.436 20.9023H103.318C103.24 20.9154 103.162 20.9219 103.084 20.9219H95.7012C95.3366 20.9219 95.0241 20.7982 94.7637 20.5508C94.5163 20.2904 94.3926 19.9779 94.3926 19.6133C94.3926 19.2487 94.5228 18.9427 94.7832 18.6953C95.0306 18.4349 95.3366 18.3047 95.7012 18.3047H103.553C103.8 18.3177 104.002 18.2721 104.158 18.168C104.327 18.0638 104.451 17.9466 104.529 17.8164C104.607 17.6732 104.646 17.5299 104.646 17.3867C104.646 17.2956 104.607 17.1719 104.529 17.0156C104.451 16.8464 104.327 16.7096 104.158 16.6055C104.002 16.5013 103.8 16.4427 103.553 16.4297H98.0059C97.0944 16.4036 96.3392 16.1953 95.7402 15.8047C95.1543 15.4141 94.7311 14.9714 94.4707 14.4766C94.2233 13.9688 94.0996 13.4544 94.0996 12.9336C94.0996 12.4258 94.2298 11.9245 94.4902 11.4297C94.7507 10.9219 95.1738 10.4727 95.7598 10.082C96.3457 9.69141 97.0944 9.48307 98.0059 9.45703H98.123C98.2012 9.44401 98.2793 9.4375 98.3574 9.4375H105.701C106.066 9.4375 106.372 9.56771 106.619 9.82812C106.88 10.0755 107.01 10.3815 107.01 10.7461ZM109.158 10.7461C109.158 10.3815 109.282 10.0755 109.529 9.82812C109.79 9.56771 110.102 9.4375 110.467 9.4375H121.834C122.199 9.4375 122.511 9.5612 122.771 9.80859C123.019 10.069 123.143 10.3815 123.143 10.7461C123.143 11.1107 123.012 11.4232 122.752 11.6836C122.505 11.931 122.199 12.0547 121.834 12.0547H117.479V19.9648C117.4 20.7461 116.971 21.1693 116.189 21.2344C115.825 21.2344 115.506 21.1172 115.232 20.8828C114.972 20.6354 114.842 20.3294 114.842 19.9648V12.0547H110.467C110.102 12.0547 109.796 11.9245 109.549 11.6641C109.288 11.4167 109.158 11.1107 109.158 10.7461ZM135.682 9.4375C136.346 9.45052 136.938 9.65885 137.459 10.0625C137.98 10.4661 138.396 10.9479 138.709 11.5078C139.035 12.0677 139.275 12.6602 139.432 13.2852C139.588 13.9102 139.666 14.5482 139.666 15.1992C139.666 16.0586 139.529 16.9049 139.256 17.7383C138.995 18.5586 138.559 19.2878 137.947 19.9258C137.348 20.5638 136.593 20.9089 135.682 20.9609H128.865C127.954 20.9219 127.192 20.5833 126.58 19.9453C125.968 19.3073 125.532 18.5716 125.271 17.7383C125.024 16.9049 124.9 16.0586 124.9 15.1992C124.9 14.3398 125.031 13.5 125.291 12.6797C125.551 11.8464 125.981 11.1107 126.58 10.4727C127.192 9.82161 127.954 9.47656 128.865 9.4375H129.236H135.311H135.682ZM135.018 18.3438C135.512 18.3177 135.923 18.1354 136.248 17.7969C136.587 17.4453 136.827 17.0417 136.971 16.5859C137.114 16.1302 137.186 15.668 137.186 15.1992C137.186 14.7305 137.107 14.2747 136.951 13.832C136.808 13.3763 136.574 12.9727 136.248 12.6211C135.923 12.2695 135.512 12.0807 135.018 12.0547H129.471C128.976 12.0807 128.566 12.2695 128.24 12.6211C127.915 12.9727 127.674 13.3763 127.518 13.832C127.374 14.2747 127.303 14.7305 127.303 15.1992C127.303 15.668 127.374 16.1302 127.518 16.5859C127.661 17.0417 127.895 17.4453 128.221 17.7969C128.559 18.1354 128.976 18.3177 129.471 18.3438H135.018ZM144.432 19.9648C144.354 20.7461 143.924 21.1693 143.143 21.2344C142.778 21.2344 142.459 21.1172 142.186 20.8828C141.925 20.6354 141.795 20.3294 141.795 19.9648V10.707C141.808 10.3424 141.945 10.043 142.205 9.80859C142.465 9.5612 142.778 9.4375 143.143 9.4375H144.1H146.502H151.326C151.404 9.4375 151.482 9.44401 151.561 9.45703H151.678C152.589 9.48307 153.338 9.69141 153.924 10.082C154.51 10.4727 154.933 10.9219 155.193 11.4297C155.454 11.9245 155.584 12.4258 155.584 12.9336C155.584 13.4544 155.454 13.9688 155.193 14.4766C154.946 14.9714 154.523 15.4141 153.924 15.8047C153.338 16.1953 152.589 16.4036 151.678 16.4297H148.24C148.344 17.0807 148.559 17.5625 148.885 17.875C149.197 18.1875 149.594 18.3438 150.076 18.3438H154.295C154.66 18.3568 154.959 18.4935 155.193 18.7539C155.441 19.0143 155.564 19.3268 155.564 19.6914C155.551 20.043 155.421 20.3424 155.174 20.5898C154.939 20.8242 154.646 20.9479 154.295 20.9609H149.725C148.761 20.974 147.889 20.5964 147.107 19.8281C146.326 19.0599 145.851 18.1484 145.682 17.0938C145.447 15.9219 145.33 15.2643 145.33 15.1211C145.33 14.7565 145.454 14.4505 145.701 14.2031C145.962 13.9427 146.274 13.8125 146.639 13.8125H151.795C152.042 13.7995 152.244 13.7474 152.4 13.6562C152.57 13.5521 152.693 13.4414 152.771 13.3242C152.85 13.194 152.889 13.0638 152.889 12.9336C152.889 12.8034 152.85 12.6797 152.771 12.5625C152.693 12.4323 152.57 12.3216 152.4 12.2305C152.244 12.1263 152.042 12.0677 151.795 12.0547H146.502H144.939C144.601 12.0677 144.432 12.237 144.432 12.5625V19.9648ZM161.326 9.4375H162.225H168.865C169.23 9.45052 169.529 9.58724 169.764 9.84766C170.011 10.1081 170.135 10.4206 170.135 10.7852C170.07 11.5664 169.646 11.9896 168.865 12.0547H161.99C161.495 12.0807 161.085 12.2695 160.76 12.6211C160.434 12.9727 160.193 13.3763 160.037 13.832C159.894 14.2747 159.822 14.7305 159.822 15.1992C159.822 15.668 159.894 16.1302 160.037 16.5859C160.193 17.0286 160.434 17.4258 160.76 17.7773C161.085 18.1289 161.495 18.3177 161.99 18.3438H168.865C169.23 18.3568 169.529 18.4935 169.764 18.7539C170.011 19.0143 170.135 19.3268 170.135 19.6914C170.122 20.043 169.992 20.3424 169.744 20.5898C169.51 20.8242 169.217 20.9479 168.865 20.9609H161.697H161.326C160.415 20.9089 159.66 20.5638 159.061 19.9258C158.475 19.2747 158.051 18.5391 157.791 17.7188C157.544 16.8984 157.42 16.0586 157.42 15.1992C157.42 14.3398 157.55 13.5 157.811 12.6797C158.071 11.8594 158.494 11.1302 159.08 10.4922C159.666 9.84115 160.415 9.48958 161.326 9.4375ZM170.096 15.1211C170.096 15.4857 169.965 15.7917 169.705 16.0391C169.458 16.2995 169.152 16.4297 168.787 16.4297H162.889C162.524 16.4297 162.212 16.306 161.951 16.0586C161.704 15.7982 161.58 15.4857 161.58 15.1211C161.58 14.7565 161.704 14.444 161.951 14.1836C162.212 13.9362 162.524 13.8125 162.889 13.8125H168.787C169.152 13.8125 169.458 13.9427 169.705 14.2031C169.965 14.4505 170.096 14.7565 170.096 15.1211Z" fill="white"/>
<defs>
<linearGradient id="paint0_linear_919_294" x1="37" y1="0" x2="37" y2="92" gradientUnits="userSpaceOnUse">
<stop stop-color="#352C44"/>
<stop offset="1" stop-color="#7A61A8"/>
</linearGradient>
<linearGradient id="paint1_linear_919_294" x1="37" y1="0" x2="37" y2="92" gradientUnits="userSpaceOnUse">
<stop stop-color="#352C44"/>
<stop offset="1" stop-color="#7A61A8"/>
</linearGradient>
<linearGradient id="paint2_linear_919_294" x1="37" y1="0" x2="37" y2="92" gradientUnits="userSpaceOnUse">
<stop stop-color="#352C44"/>
<stop offset="1" stop-color="#7A61A8"/>
</linearGradient>
<linearGradient id="paint3_linear_919_294" x1="37" y1="0" x2="37" y2="92" gradientUnits="userSpaceOnUse">
<stop stop-color="#352C44"/>
<stop offset="1" stop-color="#7A61A8"/>
</linearGradient>
<linearGradient id="paint4_linear_919_294" x1="37" y1="0" x2="37" y2="92" gradientUnits="userSpaceOnUse">
<stop stop-color="#352C44"/>
<stop offset="1" stop-color="#7A61A8"/>
</linearGradient>
</defs>
</svg>
