<svg width="708" height="652" viewBox="0 0 708 652" fill="none" xmlns="http://www.w3.org/2000/svg">
<path fill-rule="evenodd" clip-rule="evenodd" d="M551.046 268.663C533.489 280.682 502.326 306.986 482.74 321.602C471.124 330.27 459.658 339.017 448.185 348.394L413.217 375.01C406.954 377.474 378.243 379.061 369.3 379.77L260.456 389.546C253.875 390.26 245.733 390.488 238.665 391.55L376.119 284.269L550.079 268.602C550.289 268.607 550.729 268.604 551.046 268.663ZM171.394 415.27C175.811 426.498 181.028 427.683 193.141 426.8L257.402 421.046C260.917 420.765 267.909 419.879 270.774 420.07L327.379 563.671C333.103 573.945 342.84 571.462 354.952 568.81C440.98 549.977 512.361 523.66 587.662 477.065C594.473 472.851 607.651 465.662 602.582 452.777L567.534 363.684C558.585 340.937 530.829 355.35 537.185 371.508L568.963 452.286C562.074 455.172 552.68 461.783 545.336 465.941C538.057 470.062 527.815 475.237 520.654 479.146C504.382 488.03 465.77 504.185 446.031 511.675L350.657 538.165L302.991 416.997C321.087 414.276 370.372 411.444 392.097 409.088C432.237 404.737 419.858 411.312 467.792 372.57L595.911 272.959C601.674 287.608 607.358 302.318 613.224 316.922C617.56 327.718 617.112 327.504 616.642 336.175C616.128 345.664 615.493 351.057 618.508 358.721C621.428 366.142 630.709 369.009 638.121 366.093C643.596 363.94 642.988 360.625 646.545 359.385C648.893 358.566 652.665 360.372 657.42 358.502C664.845 355.581 669.693 347.214 666.286 338.553C662.899 329.945 648.861 319.998 645.955 314.88L620.657 250.875C613.019 231.205 611.134 231.196 586.407 233.883L365.551 253.841C359.708 256.139 345.816 268.165 339.989 272.603L187.227 391.369C179.635 397.184 167.137 404.445 171.395 415.268L171.394 415.27Z" fill="url(#paint0_linear_1155_237)"/>
<path fill-rule="evenodd" clip-rule="evenodd" d="M288.379 216.988C298.256 242.096 330.126 208.94 343.364 197.916C349.814 192.545 379.7 169.938 383.318 165.516C394.23 152.175 379.249 135.973 365.828 141.253C361.588 142.921 347.154 155.05 343.092 158.254L298.922 193.8C290.982 200.002 283.65 204.967 288.38 216.989L288.379 216.988Z" fill="url(#paint1_linear_1155_237)"/>
<path fill-rule="evenodd" clip-rule="evenodd" d="M261.741 149.275C273.219 178.452 302.328 143.039 327.577 123.955C345.221 110.619 365.841 98.8041 359.738 83.2889C357.03 76.4043 348.363 72.6738 338.919 76.3893C334.865 77.9839 266.54 131.852 263.559 136.207C261.7 138.924 260.045 144.964 261.74 149.274L261.741 149.275Z" fill="url(#paint2_linear_1155_237)"/>
<path fill-rule="evenodd" clip-rule="evenodd" d="M5.14257 222.785C11.3672 238.608 32.6849 232.695 57.257 230.929C68.0677 230.152 106.745 228.083 114.64 224.978C127.155 220.054 128.881 192.867 100.561 196.196C91.7341 197.234 82.0227 197.943 72.6908 198.44C61.9095 199.013 22.7288 200.777 13.2696 204.498C6.22318 207.27 2.41177 215.844 5.14257 222.785Z" fill="url(#paint3_linear_1155_237)"/>
<path fill-rule="evenodd" clip-rule="evenodd" d="M30.846 288.122C36.5618 302.651 45.8767 299.15 61.1479 298.319C71.6397 297.748 84.4746 296.949 95.132 295.754C111.768 293.889 136.504 295.367 144.49 288.195C151.484 281.913 154.79 260.346 127.005 262.106L40.1809 269.361C32.9813 272.194 28.0569 281.027 30.8483 288.123L30.846 288.122Z" fill="url(#paint4_linear_1155_237)"/>
<path fill-rule="evenodd" clip-rule="evenodd" d="M58.4157 358.206C62.1025 367.578 66.488 369.566 77.3069 369.444L122.614 365.06C131.912 361.631 134.598 353.604 130.629 343.514C126.515 333.056 112.048 335.345 101.949 336.385C95.3511 337.065 72.1918 337.696 67.7466 339.445C60.6615 342.232 55.7126 351.339 58.4134 358.205L58.4157 358.206Z" fill="url(#paint5_linear_1155_237)"/>
<defs>
<linearGradient id="paint0_linear_1155_237" x1="362.115" y1="248.556" x2="477.194" y2="532.651" gradientUnits="userSpaceOnUse">
<stop stop-color="#5FC8E9" stop-opacity="0.62"/>
<stop offset="0.514423" stop-color="#6F7AF2" stop-opacity="0.71"/>
<stop offset="1" stop-color="#7C49C3" stop-opacity="0.68"/>
</linearGradient>
<linearGradient id="paint1_linear_1155_237" x1="324.893" y1="156.115" x2="346.313" y2="209.311" gradientUnits="userSpaceOnUse">
<stop stop-color="#5FC8E9" stop-opacity="0.62"/>
<stop offset="0.514423" stop-color="#6F7AF2" stop-opacity="0.71"/>
<stop offset="1" stop-color="#7C49C3" stop-opacity="0.68"/>
</linearGradient>
<linearGradient id="paint2_linear_1155_237" x1="299.232" y1="90.7689" x2="320.493" y2="143.583" gradientUnits="userSpaceOnUse">
<stop stop-color="#5FC8E9" stop-opacity="0.62"/>
<stop offset="0.514423" stop-color="#6F7AF2" stop-opacity="0.71"/>
<stop offset="1" stop-color="#7C49C3" stop-opacity="0.68"/>
</linearGradient>
<linearGradient id="paint3_linear_1155_237" x1="51.987" y1="188.026" x2="73.4002" y2="241.209" gradientUnits="userSpaceOnUse">
<stop stop-color="#5FC8E9" stop-opacity="0.62"/>
<stop offset="0.514423" stop-color="#6F7AF2" stop-opacity="0.71"/>
<stop offset="1" stop-color="#7C49C3" stop-opacity="0.68"/>
</linearGradient>
<linearGradient id="paint4_linear_1155_237" x1="77.8171" y1="253.307" x2="99.3629" y2="306.814" gradientUnits="userSpaceOnUse">
<stop stop-color="#5FC8E9" stop-opacity="0.62"/>
<stop offset="0.514423" stop-color="#6F7AF2" stop-opacity="0.71"/>
<stop offset="1" stop-color="#7C49C3" stop-opacity="0.68"/>
</linearGradient>
<linearGradient id="paint5_linear_1155_237" x1="85.9123" y1="331.328" x2="102.74" y2="372.888" gradientUnits="userSpaceOnUse">
<stop stop-color="#5FC8E9" stop-opacity="0.62"/>
<stop offset="0.514423" stop-color="#6F7AF2" stop-opacity="0.71"/>
<stop offset="1" stop-color="#7C49C3" stop-opacity="0.68"/>
</linearGradient>
</defs>
</svg>
