<svg width="203" height="236" viewBox="0 0 203 236" fill="none" xmlns="http://www.w3.org/2000/svg">
<path fill-rule="evenodd" clip-rule="evenodd" d="M52.7498 84.4072L69.6143 99.2314C70.3374 99.867 69.953 101.783 69.209 102.389L55.4854 113.556C54.741 114.161 52.4504 114.142 51.7052 113.534L33.7203 98.8868C32.9751 98.2799 32.6769 95.888 33.4681 95.3423L49.1946 84.4883C49.9859 83.9421 52.0276 83.7725 52.7498 84.4072Z" fill="white"/>
<path fill-rule="evenodd" clip-rule="evenodd" d="M102.75 86.4072L119.614 101.231C120.337 101.867 119.953 103.783 119.209 104.389L105.485 115.556C104.741 116.161 102.45 116.142 101.705 115.534L83.7203 100.887C82.9751 100.28 82.6769 97.888 83.4681 97.3423L99.1946 86.4883C99.9859 85.9421 102.028 85.7725 102.75 86.4072Z" fill="white"/>
<path fill-rule="evenodd" clip-rule="evenodd" d="M152.75 89.4072L169.614 104.231C170.337 104.867 169.953 106.783 169.209 107.389L155.485 118.556C154.741 119.161 152.45 119.142 151.705 118.534L133.72 103.887C132.975 103.28 132.677 100.888 133.468 100.342L149.195 89.4883C149.986 88.9421 152.028 88.7725 152.75 89.4072Z" fill="white"/>
<path d="M193.81 180.9H165.81V152.9C165.81 147.9 161.81 143.9 156.81 143.9C151.81 143.9 147.81 147.9 147.81 152.9V180.9H119.71C114.71 180.9 110.71 184.9 110.71 189.9C110.71 194.9 114.71 198.9 119.71 198.9H147.71V226.9C147.71 231.9 151.71 235.9 156.71 235.9C161.71 235.9 165.71 231.9 165.71 226.9V198.9H193.71C198.71 198.9 202.71 194.9 202.71 189.9C202.81 185 198.71 180.9 193.81 180.9Z" fill="white"/>
<path d="M192.511 60.1C187.211 48 179.911 37.5 170.711 28.6C161.511 19.7 150.811 12.6 138.611 7.5C126.811 2.5 114.211 0 100.711 0C100.311 0 99.9107 0 99.5107 0C85.6107 0.1 72.6107 2.9 60.4107 8.2C48.3107 13.5 37.7107 20.7 28.7107 29.8C19.7107 38.9 12.6107 49.6 7.51073 61.8C2.41073 74 -0.189272 87 0.010728 100.9C0.310728 114 2.91073 126.2 7.71073 137.6C12.3107 148.9 18.6107 158.9 26.4107 167.4C28.8107 170.1 30.3107 173.1 30.9107 176.2C31.4107 179.3 30.2107 181.7 27.1107 183.4C21.3107 186.5 14.4107 188.6 6.31073 190C4.81073 190.3 7.91073 191.7 15.5107 194.1C23.2107 196.5 35.0107 198.5 50.8107 200C58.0107 200.8 64.4107 201.2 70.1107 201.4C73.0107 201.5 75.7107 201.5 78.3107 201.5C80.9107 201.5 83.4107 201.5 85.7107 201.4C86.4107 201.4 87.1107 201.3 87.9107 201.3V201.2C91.6107 200.6 94.4107 197.4 94.4107 193.5C94.4107 189.2 90.9107 185.7 86.6107 185.7C86.6107 185.7 86.6107 185.7 86.5107 185.7C86.2107 185.7 85.9107 185.7 85.6107 185.7C83.5107 185.8 81.2107 185.8 78.8107 185.8C76.4107 185.8 73.8107 185.8 71.1107 185.7C65.9107 185.6 59.9107 185.1 53.1107 184.4C50.1107 184.1 47.3107 183.8 44.7107 183.5C46.0107 180.1 46.5107 176.3 45.8107 172.5C44.8107 166.8 42.2107 161.6 38.1107 157V156.8C31.6107 149.6 26.2107 141.1 22.1107 131.5C18.1107 122.1 16.0107 111.7 15.7107 100.7C15.6107 89.1 17.7107 78.1 22.0107 68C26.4107 57.7 32.4107 48.6 40.0107 40.9C47.5107 33.2 56.6107 27.1 66.8107 22.6C77.0107 18.1 88.1107 15.8 99.7107 15.7H100.711C111.911 15.7 122.611 17.8 132.411 22C142.711 26.4 151.911 32.4 159.711 39.9C167.411 47.3 173.611 56.3 178.111 66.5C182.611 76.6 184.911 87.6 185.011 99.3C185.111 110.3 183.211 120.7 179.411 130.3C178.611 132.3 177.611 134.3 176.711 136.3L176.911 136.4C175.911 137.7 175.311 139.3 175.311 141C175.311 145.3 178.811 148.8 183.111 148.8C186.311 148.8 189.111 146.8 190.311 144.1H190.411C191.711 141.5 192.911 138.8 194.011 136.1C198.611 124.5 200.911 112.2 200.711 99.1C200.611 85.2 197.811 72.2 192.511 60.1Z" fill="white"/>
</svg>
