<svg width="187" height="96" viewBox="0 0 187 96" fill="none" xmlns="http://www.w3.org/2000/svg">
<path d="M185 39.9963H174.644H174.662V15.4424H174.611H184.394V18.3824L174.879 22.0773L183.594 27.6198V30.5402H174.636L185 37.0562V39.9963Z" fill="url(#paint0_linear_569_224)"/>
<path d="M104.732 37.3499V40C103.586 38.8055 91.9046 26.3359 91.7412 26.3359V40H89V12.2424H91.7412V25.2853L104.732 12.2424V14.9325L93.638 25.5562L104.732 37.3499Z" fill="url(#paint1_linear_569_224)"/>
<path fill-rule="evenodd" clip-rule="evenodd" d="M132.574 12H135.776V14.9423L132.574 14.9344V12Z" fill="url(#paint2_linear_569_224)"/>
<path d="M119.222 40H104.732V12.2424H118.616V15.1825H107.935V24.4199H117.816V27.3402H107.935V37.0599H119.222V40ZM132.43 18.4601H128.687L128.225 40H125.023L125.484 18.4601H117.608V15.5203H132.43V18.4601ZM135.778 40H132.575V15.5203H135.778V40ZM157.301 15.5203L147.52 40L136.5 15.5203H140.067L148.19 33.432C148.501 32.775 152.981 17.2567 153.852 15.5203H157.301ZM174.338 40H159.849V15.4451H173.732V18.3852H163.051V24.4199H172.932V27.3402H163.051V37.0599H174.338V40Z" fill="url(#paint3_linear_569_224)"/>
<path fill-rule="evenodd" clip-rule="evenodd" d="M0.232215 28.5722C11.6498 19.1443 22.5966 9.73539 34.0145 0.306837C34.732 -0.25574 35.7073 -0.0944071 35.7073 1.20722L35.8473 20.7969C31.0124 25.1565 26.0343 29.3605 21.1992 33.7201C19.9529 34.0508 19.1483 33.2065 18.4347 33.6048L0 46.602L0.232215 28.5722Z" fill="url(#paint4_linear_569_224)"/>
<path fill-rule="evenodd" clip-rule="evenodd" d="M37.8614 20.8481L37.7717 1.09225C45.9373 7.96296 54.8105 15.8236 62.9761 22.6946C67.4702 23.3725 70.2174 25.9983 71.8736 29.09C71.9611 37.766 64.7381 40.4784 60.7638 40.5628L37.8614 20.8481Z" fill="url(#paint5_linear_569_224)"/>
<path fill-rule="evenodd" clip-rule="evenodd" d="M16.4117 39.3228L29.3277 50.8609C29.8815 51.3555 29.5871 52.8472 29.0173 53.3183L18.5068 62.0098C17.9367 62.4812 16.1824 62.466 15.6116 61.9933L1.83761 50.5927C1.26684 50.1203 1.03846 48.2586 1.64446 47.8339L13.6889 39.3859C14.2949 38.9608 15.8586 38.8288 16.4117 39.3228Z" fill="url(#paint6_linear_569_224)"/>
<path fill-rule="evenodd" clip-rule="evenodd" d="M27.2132 62.0271L33.9663 55.6404C37.0524 52.7215 39.9559 49.0443 43.9922 52.3763L71.3068 74.9264C76.6346 79.3246 68.5612 93.7278 58.6096 89.0919L54.2123 85.6263L52.5983 76.3372C52.5342 75.9678 44.6066 68.9719 41.8056 66.7116C40.1839 65.4032 37.5408 71.1819 35.9003 72.4661L14.4177 89.2829C8.1152 90.9484 -1.80565 89.6075 0.782021 75.4838C4.37575 72.0598 7.4352 70.0384 11.4418 66.7183C20.3143 68.2592 21.444 67.4834 27.2132 62.0271Z" fill="url(#paint7_linear_569_224)"/>
<path fill-rule="evenodd" clip-rule="evenodd" d="M27.2132 62.0271C21.6256 67.6496 20.3143 68.2595 11.4418 66.7183C7.4352 70.0384 4.37575 72.0598 0.782021 75.4838C-1.80565 89.6075 8.1152 90.9484 14.4177 89.2829L35.0081 73.1723L34.8828 54.3095L27.2132 62.0271Z" fill="#726696"/>
<path fill-rule="evenodd" clip-rule="evenodd" d="M40.6245 74.7341L54.2123 85.6263C54.4288 74.8179 51.0572 73.0335 42.17 66.3354C41.8112 66.357 41.4961 66.3805 41.1585 66.4034C40.949 70.2609 40.9026 71.3745 40.6245 74.7341Z" fill="#816CA9"/>
<path fill-rule="evenodd" clip-rule="evenodd" d="M35.2293 20.2843C31.7172 23.6134 18.834 33.479 18.9413 33.4976C19.3272 33.5656 20.8822 33.9881 21.2227 33.6928L35.8473 20.7969L35.842 20.0006C35.842 19.8898 35.3045 20.2131 35.2293 20.2843Z" fill="url(#paint8_linear_569_224)"/>
<path fill-rule="evenodd" clip-rule="evenodd" d="M63.6024 24.3301C66.695 25.2124 70.9238 28.0903 71.4419 29.6743C72.7169 33.571 66.3726 39.542 61.8631 39.0434C52.8952 38.0511 57.3607 22.5497 63.6024 24.3301Z" fill="#9C7BFF"/>
<path d="M93.5413 61.369V82H89.6413V54.7H93.1903L107.308 75.331H107.386V54.7H111.286V82H107.737L93.6193 61.369H93.5413ZM133.335 78.607V82H122.454L117.93 79.387V64.918L122.454 62.305H128.811L133.335 64.918V73.576H121.713V78.607H133.335ZM121.713 65.698V70.183H129.552V65.698H121.713ZM155.436 82L151.224 67.102H151.146L146.973 82H142.488L137.613 62.5H141.123L144.828 77.749H144.906L149.196 62.5H153.213L157.503 77.749H157.581L161.286 62.5H164.796L159.921 82H155.436ZM183.743 73.03V79.387L179.219 82H169.079V78.607H179.96V73.81H173.603L169.079 71.197V65.113L173.603 62.5H183.353V65.893H172.862V70.417H179.219L183.743 73.03Z" fill="url(#paint9_linear_569_224)"/>
<defs>
<linearGradient id="paint0_linear_569_224" x1="139.535" y1="12.2424" x2="139.535" y2="40" gradientUnits="userSpaceOnUse">
<stop stop-color="#352C44"/>
<stop offset="1" stop-color="#7A61A8"/>
</linearGradient>
<linearGradient id="paint1_linear_569_224" x1="139.535" y1="12.2424" x2="139.535" y2="40" gradientUnits="userSpaceOnUse">
<stop stop-color="#352C44"/>
<stop offset="1" stop-color="#7A61A8"/>
</linearGradient>
<linearGradient id="paint2_linear_569_224" x1="139.535" y1="12.2424" x2="139.535" y2="40" gradientUnits="userSpaceOnUse">
<stop stop-color="#352C44"/>
<stop offset="1" stop-color="#7A61A8"/>
</linearGradient>
<linearGradient id="paint3_linear_569_224" x1="139.535" y1="12.2424" x2="139.535" y2="40" gradientUnits="userSpaceOnUse">
<stop stop-color="#352C44"/>
<stop offset="1" stop-color="#7A61A8"/>
</linearGradient>
<linearGradient id="paint4_linear_569_224" x1="36.5" y1="0" x2="36.5" y2="90" gradientUnits="userSpaceOnUse">
<stop stop-color="#352C44"/>
<stop offset="1" stop-color="#7A61A8"/>
</linearGradient>
<linearGradient id="paint5_linear_569_224" x1="36.5" y1="0" x2="36.5" y2="90" gradientUnits="userSpaceOnUse">
<stop stop-color="#352C44"/>
<stop offset="1" stop-color="#7A61A8"/>
</linearGradient>
<linearGradient id="paint6_linear_569_224" x1="36.5" y1="0" x2="36.5" y2="90" gradientUnits="userSpaceOnUse">
<stop stop-color="#352C44"/>
<stop offset="1" stop-color="#7A61A8"/>
</linearGradient>
<linearGradient id="paint7_linear_569_224" x1="36.5" y1="0" x2="36.5" y2="90" gradientUnits="userSpaceOnUse">
<stop stop-color="#352C44"/>
<stop offset="1" stop-color="#7A61A8"/>
</linearGradient>
<linearGradient id="paint8_linear_569_224" x1="36.5" y1="0" x2="36.5" y2="90" gradientUnits="userSpaceOnUse">
<stop stop-color="#352C44"/>
<stop offset="1" stop-color="#7A61A8"/>
</linearGradient>
<linearGradient id="paint9_linear_569_224" x1="139.167" y1="40.4849" x2="139.167" y2="96" gradientUnits="userSpaceOnUse">
<stop offset="0.5" stop-color="#9C7BFF"/>
<stop offset="1"/>
</linearGradient>
</defs>
</svg>
