<svg width="189" height="189" viewBox="0 0 189 189" fill="none" xmlns="http://www.w3.org/2000/svg">
<path fill-rule="evenodd" clip-rule="evenodd" d="M1.20781 89.2598L2.88265 89.1773L2.90219 89.2125L1.93315 89.2598C1.26893 89.2932 0.715559 89.8658 0.725339 90.5331L1.08803 113.99V136.047L0.725339 168.433C0.718819 169 1.11572 169.46 1.64221 169.565L1.20781 169.587C0.543589 169.62 0 169.101 0 168.433V90.5322C0 89.865 0.543589 89.2932 1.20781 89.2598ZM5.31133 89.0573L16.2315 88.5182L16.9454 88.519L5.2502 89.0964C5.26813 89.0833 5.28851 89.0703 5.31133 89.0573ZM25.1125 88.0796L25.5793 88.0568L25.5909 88.0918L25.1956 88.1115C25.1663 88.1033 25.1386 88.0927 25.1125 88.0796ZM26.7366 87.9996L57.854 86.4633L57.8542 86.4992L26.7384 88.0355L26.7366 87.9996Z" fill="#606060"/>
<path fill-rule="evenodd" clip-rule="evenodd" d="M1.93315 89.2598L2.90219 89.2125C2.99673 89.3848 3.08609 89.5392 3.16678 89.6731C3.22383 89.7679 3.28168 89.8626 3.33873 89.9573L4.22874 90.1272C4.64358 89.3987 4.44062 89.5784 5.20917 89.1308L5.2502 89.0964L16.9454 88.519C21.3195 88.5239 25.5262 88.5607 26.7699 88.381C26.7585 88.2985 26.749 88.1817 26.7384 88.0355L58.4473 86.4699L58.4554 88.8907L12.7617 91.2511C9.44062 91.4226 6.72423 94.2926 6.72423 97.6298V160.856C6.72423 164.192 9.44062 166.782 12.7617 166.611L58.58 164.243L58.5801 166.79L1.93286 169.588C1.26864 169.619 0.718004 169.101 0.725339 168.433L1.08803 136.047V113.99L0.725339 90.5331C0.715559 89.8658 1.26893 89.2932 1.93315 89.2598ZM25.1956 88.1115L25.5909 88.0918L25.6102 88.1499C25.4341 88.1523 25.3016 88.1425 25.1956 88.1115Z" fill="#9A9BA7"/>
<path fill-rule="evenodd" clip-rule="evenodd" d="M12.7617 91.2511L58.4554 88.8907L58.5101 105.72L28.5704 115.538C28.5231 115.781 28.4775 116.024 28.4343 116.264L28.5304 115.484C25.0781 115.755 21.2476 116.241 17.7953 116.513C17.1343 116.564 16.6486 117.148 16.7154 117.81L18.3479 133.868C18.4147 134.53 19.0105 135.028 19.6722 134.976L30.03 134.161C28.1409 129.65 27.6364 126.667 27.7749 123.017C27.7733 126.718 28.4424 130.356 30.07 134.215L35.2313 135.388C33.5027 134.995 31.7815 134.603 30.07 134.215L23.6453 134.7C27.5378 142.309 31.4302 149.919 35.3218 157.528C36.4424 159.717 39.5239 161.224 41.7252 160.133C41.8638 160.064 42.0032 159.988 42.1384 159.908C44.1719 158.699 45.5362 155.546 44.4946 153.49L35.3307 135.41C42.986 137.154 50.7953 138.946 58.5802 140.73L58.58 164.243L12.7617 166.611C9.44062 166.782 6.72423 164.192 6.72423 160.856V97.6298C6.72423 94.2926 9.44062 91.4226 12.7617 91.2511Z" fill="#606060"/>
<path fill-rule="evenodd" clip-rule="evenodd" d="M90.4105 34.2183L123.437 35.4197C112.434 35.0228 101.431 34.6259 90.4325 34.2273L90.4105 34.2183ZM111.307 172.923L159.081 170.929V175.074L111.307 177.068V172.923ZM111.915 165.314L159.689 163.32V167.465L111.915 169.458V165.314ZM112.012 149.083L159.785 147.089V151.233L112.012 153.227V149.083ZM131.913 124.593H179.688V128.737H131.913V124.593ZM84.4154 125.093L84.4268 120.238H84.4154V125.093ZM88.2972 125.093H123.703V129.238H85.228C84.9663 129.431 84.6949 129.61 84.4154 129.772V132.669H123.703V136.814H84.4154V141.86L108.308 140.205V171.245L74.8832 173.561V144.457C69.5172 143.235 64.0772 141.989 58.6248 140.74L58.7283 172.511C58.7226 172.615 58.7153 172.721 58.708 172.825C58.7047 172.874 58.699 172.93 58.6949 172.979C58.69 173.036 58.6851 173.092 58.6802 173.148L58.6672 173.266C58.6607 173.333 58.6542 173.4 58.646 173.466C58.6403 173.517 58.6338 173.567 58.6273 173.618C58.6199 173.674 58.6134 173.73 58.6061 173.786L58.5865 173.915C58.5775 173.982 58.5678 174.047 58.558 174.112L58.5368 174.24C58.5262 174.302 58.5164 174.365 58.505 174.428C58.496 174.481 58.4855 174.533 58.4757 174.586C58.4651 174.641 58.4553 174.695 58.4447 174.749C58.4333 174.807 58.4203 174.866 58.408 174.924L58.3787 175.065C58.3648 175.128 58.351 175.19 58.3363 175.252L58.3054 175.386L58.2613 175.562L58.2239 175.711C58.2108 175.763 58.1962 175.815 58.1815 175.868C58.1668 175.923 58.1521 175.978 58.1366 176.032C58.122 176.085 58.1065 176.137 58.091 176.19C58.0755 176.243 58.0601 176.296 58.0438 176.349C58.0275 176.404 58.0095 176.46 57.9924 176.515L57.9435 176.669C57.9264 176.722 57.9076 176.775 57.8897 176.829L57.8367 176.986C57.8172 177.042 57.7968 177.098 57.7772 177.154L57.7242 177.298C57.703 177.355 57.6819 177.412 57.6598 177.468C57.6411 177.518 57.6224 177.569 57.602 177.619C57.5808 177.672 57.5588 177.726 57.5376 177.78L57.4773 177.927L57.4064 178.093L57.3412 178.245L57.2711 178.401L57.2019 178.553C57.1766 178.608 57.1505 178.661 57.1252 178.715L57.0551 178.859C57.0282 178.914 57.0013 178.969 56.9736 179.024L56.8995 179.17L56.8196 179.321L56.7373 179.476L56.6558 179.624C56.6264 179.676 56.5979 179.728 56.5678 179.781L56.4863 179.922C56.4553 179.975 56.4244 180.027 56.3934 180.079L56.307 180.222L56.2141 180.373L56.1195 180.521L56.0242 180.669L55.9304 180.81C55.8962 180.861 55.8628 180.912 55.8277 180.961L55.7332 181.097C55.6965 181.15 55.659 181.202 55.6216 181.255L55.5295 181.382L55.4129 181.538L55.3151 181.668L55.201 181.814L55.0942 181.949C55.0543 181.999 55.0144 182.048 54.9745 182.097L54.8701 182.222C54.831 182.27 54.7911 182.316 54.7511 182.362C54.7104 182.41 54.6705 182.456 54.6297 182.503C54.5939 182.544 54.558 182.584 54.5213 182.624C54.4773 182.674 54.4333 182.723 54.3885 182.772C54.3502 182.813 54.3119 182.854 54.2736 182.895C54.2312 182.94 54.1896 182.984 54.1472 183.029C54.1049 183.074 54.0616 183.117 54.0193 183.161C53.9761 183.204 53.9337 183.248 53.8897 183.292C53.8489 183.332 53.8082 183.372 53.7666 183.412C53.721 183.457 53.6745 183.502 53.6281 183.547C53.5857 183.588 53.5417 183.629 53.4977 183.67C53.4537 183.711 53.4096 183.752 53.364 183.794C53.3159 183.837 53.267 183.881 53.2181 183.924L53.0902 184.038C53.038 184.084 52.985 184.129 52.9329 184.174C52.8921 184.208 52.8514 184.243 52.8106 184.277C52.7576 184.321 52.7047 184.364 52.6509 184.408C52.6061 184.444 52.562 184.481 52.5164 184.517C52.4667 184.557 52.4153 184.596 52.364 184.636C52.3167 184.673 52.2695 184.709 52.2214 184.746C52.1643 184.789 52.1065 184.832 52.0494 184.874C52.007 184.905 51.9647 184.937 51.9223 184.968C51.8636 185.011 51.8041 185.052 51.7446 185.094C51.699 185.127 51.6533 185.16 51.6077 185.191C51.5515 185.23 51.4936 185.268 51.4374 185.306C51.3885 185.339 51.3396 185.372 51.2907 185.404C51.2352 185.44 51.1782 185.476 51.122 185.512C51.0698 185.547 51.0168 185.58 50.9639 185.614C50.9084 185.648 50.8522 185.681 50.7968 185.716C50.7422 185.749 50.6876 185.783 50.6321 185.815C50.5743 185.85 50.5148 185.884 50.4553 185.917C50.4023 185.948 50.3494 185.98 50.2948 186.011C50.2239 186.051 50.1521 186.089 50.0804 186.128C50.0372 186.151 49.9948 186.176 49.9516 186.198C49.862 186.247 49.7707 186.293 49.6802 186.339L49.5995 186.38C49.5091 186.426 49.4178 186.47 49.3265 186.514L49.2402 186.557C49.1203 186.614 48.9907 186.674 48.8693 186.728C48.7471 186.783 48.6216 186.837 48.4969 186.889C48.3746 186.942 48.2442 186.994 48.1187 187.044C48.0453 187.072 47.9696 187.101 47.8962 187.129C47.8383 187.15 47.7821 187.173 47.7243 187.194C47.6705 187.214 47.6159 187.232 47.5613 187.252C47.4822 187.28 47.4039 187.308 47.3241 187.336C47.2695 187.355 47.2141 187.372 47.1586 187.391C47.0812 187.416 47.003 187.442 46.9247 187.468C46.8595 187.488 46.7943 187.508 46.7291 187.527C46.6566 187.549 46.5857 187.572 46.5131 187.593C46.4528 187.611 46.3909 187.628 46.3306 187.645C46.2507 187.668 46.1709 187.691 46.0894 187.713C46.0299 187.728 45.9687 187.744 45.9092 187.759C45.8294 187.78 45.7503 187.8 45.6704 187.82C45.5979 187.838 45.5246 187.855 45.452 187.872C45.3811 187.888 45.311 187.905 45.2401 187.921C45.1701 187.936 45.0991 187.951 45.0282 187.966C44.95 187.983 44.8717 188 44.7927 188.016C44.7267 188.029 44.659 188.041 44.5922 188.054C44.5115 188.069 44.4308 188.084 44.3493 188.099C44.276 188.112 44.2026 188.124 44.1285 188.136C44.0682 188.146 44.0087 188.158 43.9475 188.167L43.9345 188.168C43.7503 188.198 43.5637 188.225 43.3754 188.25C86.4545 184.279 133.041 180.109 176.12 176.138C182.753 175.526 188.232 170.675 188.232 163.999V65.7844C188.201 61.129 188.217 56.454 188.232 51.7798V65.7844C177.418 65.385 166.604 64.9848 155.789 64.5854C123.345 63.3848 90.9867 74.989 58.4814 64.4776L58.3958 51.7103C58.3787 51.8157 58.3552 51.917 58.3348 52.0036L58.4473 86.4699L58.5101 105.72L77.3347 99.5466V96.5753H125.109V100.72H84.4154V107.192H124.627V111.337H84.4154V116.094H84.4341L84.4374 114.45C85.2076 114.901 85.8897 115.458 86.4741 116.094H123.703V120.238H88.6175C88.9557 121.804 88.8743 123.479 88.2972 125.093ZM131.913 132.669H179.688V136.814H131.913V132.669ZM131.913 116.798H179.688V120.942H131.913V116.798ZM111.915 157.313L159.689 155.318V159.19L111.915 161.184V157.313ZM111.814 141.703L159.588 139.708V143.579L111.814 145.574V141.703ZM76.853 87.6255H124.627V91.7697H76.853V87.6255ZM76.853 79.0646H124.627V83.2095H76.853V79.0646ZM76.853 71.4452H124.627V75.5893H76.853V71.4452ZM131.744 70.1065H179.518V114.607H131.744V70.1065ZM58.2898 35.7497L58.2817 35.7367L58.2768 34.3612L58.2809 34.371L58.2898 35.7497Z" fill="#C0C0C0"/>
<path fill-rule="evenodd" clip-rule="evenodd" d="M84.4154 141.86L108.308 140.205V171.245L74.8832 173.561V144.457C76.7455 144.881 78.5991 145.303 80.441 145.721V146.103C80.441 146.538 80.7964 146.895 81.2308 146.895H83.6268C84.0604 146.895 84.4157 146.538 84.4157 146.103L84.4154 141.86Z" fill="#666666"/>
<path fill-rule="evenodd" clip-rule="evenodd" d="M58.3348 52.0036C58.3552 51.917 58.3787 51.8157 58.3958 51.7103L58.2898 35.7497C57.3037 34.2028 56.127 29.5629 55.4334 27.508L49.1563 10.7257C48.5809 9.35193 47.9542 8.07783 47.3926 6.71306C46.717 5.07224 45.66 3.37505 46.1131 2.67755C48.3788 7.48487 50.5703 13.0763 52.6273 18.3679L58.2809 34.371L58.272 33.0504C68.9827 33.4465 79.7047 33.8377 90.4325 34.2273C89.4301 33.8418 88.1783 33.1737 86.5793 31.9878C84.6861 30.5855 83.4025 28.5534 82.5842 25.5331C79.9126 15.662 73.7219 6.0776 64.369 1.87549C63.6152 1.53655 63.1441 1.4108 62.4913 1.23439C59.541 0.440518 59.8841 0.111408 55.6991 0.00441592C51.3022 -0.107477 45.2671 1.92043 41.8058 4.56339C41.1987 5.02648 40.7643 5.44301 40.3014 5.82279C34.4293 10.6424 32.0951 21.1211 32.0601 28.9512C32.0462 32.0973 32.2158 35.6754 32.708 38.7299C33.1416 41.4186 32.7341 41.4848 34.3535 42.2321L44.5964 47.7867C46.704 49.0755 48.7724 50.5718 50.726 51.7185C53.1726 51.7586 55.6942 51.7079 58.3332 51.5061L58.3348 52.0036ZM50.0879 51.7062C49.9135 51.5625 49.633 51.3322 49.0821 50.9606C46.0096 48.8877 35.7374 42.7075 33.4285 42.0647C33.4163 43.2016 33.7569 44.8979 34.1383 46.4481C34.8898 47.5368 35.7374 48.7432 36.162 50.0132L36.2793 50.2631L36.4285 50.5636L36.4195 50.8618C40.902 51.1697 45.3585 51.5984 50.0879 51.7062Z" fill="#434143"/>
<path d="M58.272 33.0504C101.53 34.6495 144.974 36.1753 188.232 37.7752C188.294 47.0869 188.17 56.4728 188.232 65.7844C177.418 65.385 166.604 64.9848 155.789 64.5854C123.345 63.3848 90.9867 74.989 58.4814 64.4776C58.4113 54.0021 58.3413 43.5258 58.272 33.0504ZM72.1089 58.3186H68.8799L65.8359 50.8634L65.2303 52.2355V58.3186H62.5905V39.6839H65.2303V48.1167L68.8636 39.6839H71.9125L67.9304 48.3046L72.1089 58.3186ZM80.7992 58.3186H73.4145V39.6839H80.7992V43.2979H76.0535V46.502H80.4618V50.1161H76.0535V54.7045H80.7992V58.3186ZM90.9932 43.2979H87.8065V58.3186H85.1676V43.2979H81.9801V39.6839H90.9932V43.2979ZM98.0926 58.3186H92.1121V55.0117H93.7821V42.9901H92.1121V39.6839H98.0926V42.9901H96.4219V55.0117H98.0926V58.3186ZM109.49 39.6839L105.769 58.3186H102.821L99.1007 39.6839H101.866L104.332 52.7688L106.798 39.6839H109.49ZM118.344 58.3186H110.959V39.6839H118.344V43.2979H113.598V46.502H118.006V50.1161H113.598V54.7045H118.344V58.3186ZM127.934 58.3186H120.55V39.6839H127.934V43.2979H123.189V46.502H127.597V50.1161H123.189V54.7045H127.934V58.3186ZM143.362 45.562C143.362 46.3951 143.283 47.2109 143.124 48.0105C142.962 48.8044 142.736 49.4758 142.438 50.0181C142.032 50.7531 141.58 51.3037 141.079 51.6802C140.581 52.0559 139.958 52.2437 139.214 52.2437H137.578V58.3186H134.939V39.6839H139.27C139.921 39.6839 140.466 39.786 140.913 39.991C141.358 40.1969 141.753 40.4999 142.094 40.9099C142.506 41.4015 142.82 42.0337 143.037 42.7982C143.255 43.5675 143.362 44.4855 143.362 45.562ZM140.625 45.6772C140.625 45.152 140.548 44.7036 140.393 44.323C140.239 43.9473 140.061 43.6827 139.858 43.5332C139.584 43.3323 139.319 43.2212 139.062 43.2C138.803 43.1788 138.459 43.1698 138.028 43.1698H137.578V48.7317H138.327C138.772 48.7317 139.137 48.6811 139.424 48.5822C139.713 48.4842 139.953 48.2834 140.15 47.9845C140.316 47.7198 140.438 47.3988 140.513 47.0321C140.587 46.6605 140.625 46.2072 140.625 45.6772ZM150.927 45.3742C150.927 44.9127 150.876 44.5158 150.772 44.1866C150.667 43.8534 150.49 43.5928 150.237 43.405C150.062 43.2727 149.858 43.191 149.624 43.1616C149.39 43.1313 149.116 43.1183 148.805 43.1183H147.867V48.0914H148.665C149.079 48.0914 149.425 48.053 149.703 47.9803C149.984 47.9035 150.218 47.737 150.407 47.4715C150.588 47.2159 150.719 46.9333 150.803 46.6221C150.885 46.3101 150.927 45.8952 150.927 45.3742ZM155.054 58.3186H151.835L149.058 51.4743H147.867V58.3186H145.227V39.6839H149.638C150.242 39.6839 150.759 39.7477 151.191 39.8718C151.627 39.9959 152.032 40.2687 152.411 40.6836C152.794 41.1018 153.101 41.64 153.325 42.3024C153.552 42.9648 153.665 43.7978 153.665 44.7975C153.665 46.1729 153.491 47.2926 153.143 48.16C152.794 49.0266 152.296 49.7485 151.648 50.3252L155.054 58.3186ZM163.592 58.3186H156.208V39.6839H163.592V43.2979H158.847V46.502H163.256V50.1161H158.847V54.7045H163.592V58.3186ZM173.955 52.4617C173.955 54.2945 173.53 55.785 172.678 56.9301C171.826 58.0793 170.671 58.6518 169.21 58.6518C168.366 58.6518 167.629 58.5154 167.001 58.2459C166.372 57.9772 165.785 57.6309 165.237 57.2169V52.7566H165.525C166.068 53.5464 166.676 54.1532 167.348 54.5804C168.022 55.0035 168.667 55.2174 169.287 55.2174C169.449 55.2174 169.657 55.1913 169.919 55.1398C170.179 55.0933 170.389 55.0075 170.556 54.8923C170.754 54.7388 170.921 54.551 171.052 54.3288C171.18 54.1018 171.246 53.7645 171.246 53.3243C171.246 52.9143 171.152 52.5638 170.962 52.2649C170.773 51.9701 170.495 51.7439 170.129 51.5854C169.746 51.4196 169.341 51.2612 168.913 51.1158C168.487 50.9704 168.084 50.7826 167.71 50.5604C166.851 50.0524 166.236 49.3598 165.86 48.4884C165.483 47.6169 165.293 46.5364 165.293 45.2418C165.293 43.5071 165.719 42.0933 166.571 40.9956C167.423 39.8971 168.517 39.3507 169.856 39.3507C170.527 39.3507 171.19 39.47 171.845 39.7052C172.503 39.9445 173.068 40.2434 173.548 40.6019V44.8873H173.267C172.858 44.2886 172.353 43.7889 171.758 43.3878C171.162 42.986 170.553 42.7851 169.933 42.7851C169.713 42.7851 169.495 42.8112 169.28 42.8668C169.063 42.9223 168.855 43.0203 168.653 43.1698C168.476 43.298 168.323 43.4858 168.195 43.7382C168.066 43.9898 168.003 44.2805 168.003 44.6056C168.003 45.0965 168.106 45.4721 168.312 45.7375C168.517 45.9981 168.904 46.2374 169.475 46.4547C169.849 46.596 170.209 46.7373 170.556 46.8696C170.9 47.0019 171.27 47.1856 171.667 47.4209C172.449 47.8864 173.024 48.5227 173.396 49.3255C173.768 50.1292 173.955 51.1754 173.955 52.4617ZM183.93 52.4617C183.93 54.2945 183.504 55.785 182.653 56.9301C181.801 58.0793 180.644 58.6518 179.185 58.6518C178.34 58.6518 177.603 58.5154 176.976 58.2459C176.347 57.9772 175.759 57.6309 175.212 57.2169V52.7566H175.499C176.042 53.5464 176.651 54.1532 177.323 54.5804C177.997 55.0035 178.642 55.2174 179.262 55.2174C179.424 55.2174 179.631 55.1913 179.894 55.1398C180.154 55.0933 180.364 55.0075 180.53 54.8923C180.729 54.7388 180.896 54.551 181.026 54.3288C181.155 54.1018 181.221 53.7645 181.221 53.3243C181.221 52.9143 181.127 52.5638 180.937 52.2649C180.748 51.9701 180.469 51.7439 180.104 51.5854C179.72 51.4196 179.316 51.2612 178.887 51.1158C178.462 50.9704 178.059 50.7826 177.685 50.5604C176.826 50.0524 176.211 49.3598 175.834 48.4884C175.458 47.6169 175.268 46.5364 175.268 45.2418C175.268 43.5071 175.693 42.0933 176.546 40.9956C177.397 39.8971 178.492 39.3507 179.83 39.3507C180.502 39.3507 181.164 39.47 181.82 39.7052C182.477 39.9445 183.043 40.2434 183.523 40.6019V44.8873H183.242C182.833 44.2886 182.327 43.7889 181.732 43.3878C181.136 42.986 180.528 42.7851 179.908 42.7851C179.688 42.7851 179.47 42.8112 179.255 42.8668C179.037 42.9223 178.829 43.0203 178.628 43.1698C178.45 43.298 178.298 43.4858 178.169 43.7382C178.041 43.9898 177.978 44.2805 177.978 44.6056C177.978 45.0965 178.081 45.4721 178.286 45.7375C178.492 45.9981 178.878 46.2374 179.449 46.4547C179.824 46.596 180.184 46.7373 180.53 46.8696C180.874 47.0019 181.243 47.1856 181.641 47.4209C182.423 47.8864 182.999 48.5227 183.371 49.3255C183.742 50.1292 183.93 51.1754 183.93 52.4617Z" fill="#A9ADB4" fill-opacity="0.831373"/>
<path fill-rule="evenodd" clip-rule="evenodd" d="M17.7953 116.513C21.2476 116.241 25.0781 115.755 28.5304 115.484L28.4343 116.264C28.0162 118.578 27.7766 120.809 27.7749 123.017C27.6364 126.667 28.1409 129.65 30.03 134.161L19.6722 134.976C19.0105 135.028 18.4147 134.53 18.3479 133.868L16.7154 117.81C16.6486 117.148 17.1343 116.564 17.7953 116.513Z" fill="#3C363A"/>
<path fill-rule="evenodd" clip-rule="evenodd" d="M23.6453 134.7L30.07 134.215L35.2313 135.388L35.3307 135.41L44.4946 153.49C45.5362 155.546 44.1719 158.699 42.1384 159.908C42.0032 159.988 41.8638 160.064 41.7252 160.133C39.5239 161.224 36.4424 159.717 35.3218 157.528C31.4302 149.919 27.5378 142.309 23.6453 134.7Z" fill="#7A61A8" fill-opacity="0.81"/>
<path fill-rule="evenodd" clip-rule="evenodd" d="M72.1089 58.3186H68.8799L65.8359 50.8634L65.2303 52.2355V58.3186H62.5905V39.6839H65.2303V48.1167L68.8636 39.6839H71.9125L67.9304 48.3046L72.1089 58.3186ZM80.7992 58.3186H73.4145V39.6839H80.7992V43.2979H76.0535V46.502H80.4618V50.1161H76.0535V54.7045H80.7992V58.3186ZM90.9932 43.2979H87.8065V58.3186H85.1676V43.2979H81.9801V39.6839H90.9932V43.2979ZM98.0926 58.3186H92.1121V55.0117H93.7821V42.9901H92.1121V39.6839H98.0926V42.9901H96.4219V55.0117H98.0926V58.3186ZM109.49 39.6839L105.769 58.3186H102.821L99.1007 39.6839H101.866L104.332 52.7688L106.798 39.6839H109.49ZM118.344 58.3186H110.959V39.6839H118.344V43.2979H113.598V46.502H118.006V50.1161H113.598V54.7045H118.344V58.3186ZM127.934 58.3186H120.55V39.6839H127.934V43.2979H123.189V46.502H127.597V50.1161H123.189V54.7045H127.934V58.3186ZM143.362 45.562C143.362 46.3951 143.283 47.2109 143.124 48.0105C142.962 48.8044 142.736 49.4758 142.438 50.0181C142.032 50.7531 141.58 51.3037 141.079 51.6802C140.581 52.0559 139.958 52.2437 139.214 52.2437H137.578V58.3186H134.939V39.6839H139.27C139.921 39.6839 140.466 39.786 140.913 39.991C141.358 40.1969 141.753 40.4999 142.094 40.9099C142.506 41.4015 142.82 42.0337 143.037 42.7982C143.255 43.5675 143.362 44.4855 143.362 45.562ZM140.625 45.6772C140.625 45.152 140.548 44.7036 140.393 44.323C140.239 43.9473 140.061 43.6827 139.858 43.5332C139.584 43.3323 139.319 43.2212 139.062 43.2C138.803 43.1788 138.459 43.1698 138.028 43.1698H137.578V48.7317H138.327C138.772 48.7317 139.137 48.6811 139.424 48.5822C139.713 48.4842 139.953 48.2834 140.15 47.9845C140.316 47.7198 140.438 47.3988 140.513 47.0321C140.587 46.6605 140.625 46.2072 140.625 45.6772ZM150.927 45.3742C150.927 44.9127 150.876 44.5158 150.772 44.1866C150.667 43.8534 150.49 43.5928 150.237 43.405C150.062 43.2727 149.858 43.191 149.624 43.1616C149.39 43.1313 149.116 43.1183 148.805 43.1183H147.867V48.0914H148.665C149.079 48.0914 149.425 48.053 149.703 47.9803C149.984 47.9035 150.218 47.737 150.407 47.4715C150.588 47.2159 150.719 46.9333 150.803 46.6221C150.885 46.3101 150.927 45.8952 150.927 45.3742ZM155.054 58.3186H151.835L149.058 51.4743H147.867V58.3186H145.227V39.6839H149.638C150.242 39.6839 150.759 39.7477 151.191 39.8718C151.627 39.9959 152.032 40.2687 152.411 40.6836C152.794 41.1018 153.101 41.64 153.325 42.3024C153.552 42.9648 153.665 43.7978 153.665 44.7975C153.665 46.1729 153.491 47.2926 153.143 48.16C152.794 49.0266 152.296 49.7485 151.648 50.3252L155.054 58.3186ZM163.592 58.3186H156.208V39.6839H163.592V43.2979H158.847V46.502H163.256V50.1161H158.847V54.7045H163.592V58.3186ZM173.955 52.4617C173.955 54.2945 173.53 55.785 172.678 56.9301C171.826 58.0793 170.671 58.6518 169.21 58.6518C168.366 58.6518 167.629 58.5154 167.001 58.2459C166.372 57.9772 165.785 57.6309 165.237 57.2169V52.7566H165.525C166.068 53.5464 166.676 54.1532 167.348 54.5804C168.022 55.0035 168.667 55.2174 169.287 55.2174C169.449 55.2174 169.657 55.1913 169.919 55.1398C170.179 55.0933 170.389 55.0075 170.556 54.8923C170.754 54.7388 170.921 54.551 171.052 54.3288C171.18 54.1018 171.246 53.7645 171.246 53.3243C171.246 52.9143 171.152 52.5638 170.962 52.2649C170.773 51.9701 170.495 51.7439 170.129 51.5854C169.746 51.4196 169.341 51.2612 168.913 51.1158C168.487 50.9704 168.084 50.7826 167.71 50.5604C166.851 50.0524 166.236 49.3598 165.86 48.4884C165.483 47.6169 165.293 46.5364 165.293 45.2418C165.293 43.5071 165.719 42.0933 166.571 40.9956C167.423 39.8971 168.517 39.3507 169.856 39.3507C170.527 39.3507 171.19 39.47 171.845 39.7052C172.503 39.9445 173.068 40.2434 173.548 40.6019V44.8873H173.267C172.858 44.2886 172.353 43.7889 171.758 43.3878C171.162 42.986 170.553 42.7851 169.933 42.7851C169.713 42.7851 169.495 42.8112 169.28 42.8668C169.063 42.9223 168.855 43.0203 168.653 43.1698C168.476 43.298 168.323 43.4858 168.195 43.7382C168.066 43.9898 168.003 44.2805 168.003 44.6056C168.003 45.0965 168.106 45.4721 168.312 45.7375C168.517 45.9981 168.904 46.2374 169.475 46.4547C169.849 46.596 170.209 46.7373 170.556 46.8696C170.9 47.0019 171.27 47.1856 171.667 47.4209C172.449 47.8864 173.024 48.5227 173.396 49.3255C173.768 50.1292 173.955 51.1754 173.955 52.4617ZM183.93 52.4617C183.93 54.2945 183.504 55.785 182.653 56.9301C181.801 58.0793 180.644 58.6518 179.185 58.6518C178.34 58.6518 177.603 58.5154 176.976 58.2459C176.347 57.9772 175.759 57.6309 175.212 57.2169V52.7566H175.499C176.042 53.5464 176.651 54.1532 177.323 54.5804C177.997 55.0035 178.642 55.2174 179.262 55.2174C179.424 55.2174 179.631 55.1913 179.894 55.1398C180.154 55.0933 180.364 55.0075 180.53 54.8923C180.729 54.7388 180.896 54.551 181.026 54.3288C181.155 54.1018 181.221 53.7645 181.221 53.3243C181.221 52.9143 181.127 52.5638 180.937 52.2649C180.748 51.9701 180.469 51.7439 180.104 51.5854C179.72 51.4196 179.316 51.2612 178.887 51.1158C178.462 50.9704 178.059 50.7826 177.685 50.5604C176.826 50.0524 176.211 49.3598 175.834 48.4884C175.458 47.6169 175.268 46.5364 175.268 45.2418C175.268 43.5071 175.693 42.0933 176.546 40.9956C177.397 39.8971 178.492 39.3507 179.83 39.3507C180.502 39.3507 181.164 39.47 181.82 39.7052C182.477 39.9445 183.043 40.2434 183.523 40.6019V44.8873H183.242C182.833 44.2886 182.327 43.7889 181.732 43.3878C181.136 42.986 180.528 42.7851 179.908 42.7851C179.688 42.7851 179.47 42.8112 179.255 42.8668C179.037 42.9223 178.829 43.0203 178.628 43.1698C178.45 43.298 178.298 43.4858 178.169 43.7382C178.041 43.9898 177.978 44.2805 177.978 44.6056C177.978 45.0965 178.081 45.4721 178.286 45.7375C178.492 45.9981 178.878 46.2374 179.449 46.4547C179.824 46.596 180.184 46.7373 180.53 46.8696C180.874 47.0019 181.243 47.1856 181.641 47.4209C182.423 47.8864 182.999 48.5227 183.371 49.3255C183.742 50.1292 183.93 51.1754 183.93 52.4617Z" fill="#FEFEFE"/>
<path fill-rule="evenodd" clip-rule="evenodd" d="M131.744 70.1065H179.518V114.607H131.744V70.1065Z" fill="#666666"/>
<path fill-rule="evenodd" clip-rule="evenodd" d="M76.853 71.4452H124.627V75.5893H76.853V71.4452Z" fill="#666666"/>
<path fill-rule="evenodd" clip-rule="evenodd" d="M76.853 79.0646H124.627V83.2095H76.853V79.0646Z" fill="#666666"/>
<path fill-rule="evenodd" clip-rule="evenodd" d="M76.853 87.6255H124.627V91.7697H76.853V87.6255Z" fill="#666666"/>
<path fill-rule="evenodd" clip-rule="evenodd" d="M111.814 141.703L159.588 139.708V143.579L111.814 145.574V141.703Z" fill="#666666"/>
<path fill-rule="evenodd" clip-rule="evenodd" d="M111.915 157.313L159.689 155.318V159.19L111.915 161.184V157.313Z" fill="#666666"/>
<path fill-rule="evenodd" clip-rule="evenodd" d="M77.3347 96.5753H125.109V100.72H84.4154L84.4154 98.1231C84.4154 97.6886 84.06 97.3325 83.6265 97.3325H81.2304C80.796 97.3325 80.4406 97.6886 80.4406 98.1231V98.5282L77.3347 99.5466V96.5753Z" fill="#666666"/>
<path fill-rule="evenodd" clip-rule="evenodd" d="M84.4154 107.192H124.627V111.337H84.4154V107.192Z" fill="#666666"/>
<path fill-rule="evenodd" clip-rule="evenodd" d="M84.4154 116.094H84.4341L84.4268 120.238H84.4154V116.094ZM86.4741 116.094H123.703V120.238H88.6175C88.285 118.697 87.5458 117.261 86.4741 116.094Z" fill="#666666"/>
<path fill-rule="evenodd" clip-rule="evenodd" d="M131.913 116.798H179.688V120.942H131.913V116.798Z" fill="#666666"/>
<path fill-rule="evenodd" clip-rule="evenodd" d="M131.913 132.669H179.688V136.814H131.913V132.669Z" fill="#666666"/>
<path fill-rule="evenodd" clip-rule="evenodd" d="M84.4154 132.669H123.703V136.814H84.4154V132.669Z" fill="#666666"/>
<path fill-rule="evenodd" clip-rule="evenodd" d="M88.2972 125.093H123.703V129.238H85.228C86.5621 128.251 87.6355 126.877 88.2582 125.204C88.2712 125.168 88.2842 125.13 88.2972 125.093Z" fill="#666666"/>
<path fill-rule="evenodd" clip-rule="evenodd" d="M131.913 124.593H179.688V128.737H131.913V124.593Z" fill="#666666"/>
<path fill-rule="evenodd" clip-rule="evenodd" d="M112.012 149.083L159.785 147.089V151.233L112.012 153.227V149.083Z" fill="#666666"/>
<path fill-rule="evenodd" clip-rule="evenodd" d="M111.915 165.314L159.689 163.32V167.465L111.915 169.458V165.314Z" fill="#666666"/>
<path fill-rule="evenodd" clip-rule="evenodd" d="M111.307 172.923L159.081 170.929V175.074L111.307 177.068V172.923Z" fill="#666666"/>
<path fill-rule="evenodd" clip-rule="evenodd" d="M30.8669 67.3067L55.9004 66.5145V70.6586L30.867 71.4509L30.8669 67.3067Z" fill="#666666"/>
<path fill-rule="evenodd" clip-rule="evenodd" d="M55.9004 72.8532V76.9981L30.8669 77.7896V73.6454L55.9004 72.8532Z" fill="#666666"/>
<path fill-rule="evenodd" clip-rule="evenodd" d="M28.5704 115.538L80.4406 98.5282L80.441 145.721C73.2918 144.099 65.9696 142.423 58.6248 140.74L58.5962 140.733L58.5802 140.73C49.004 138.534 39.3895 136.328 30.07 134.215C27.3699 127.813 27.3071 122.022 28.5704 115.538Z" fill="#A57BFF" fill-opacity="0.83"/>
<path fill-rule="evenodd" clip-rule="evenodd" d="M84.4374 114.45L84.4155 126.435L84.4154 129.772C86.1253 128.778 87.5133 127.205 88.2582 125.204C89.7839 121.102 88.0861 116.585 84.4374 114.45Z" fill="#FEFEFE"/>
<path fill-rule="evenodd" clip-rule="evenodd" d="M81.2304 97.3325H83.6265C84.06 97.3325 84.4154 97.6886 84.4154 98.1231L84.4157 146.103C84.4157 146.538 84.0604 146.895 83.6268 146.895H81.2308C80.7964 146.895 80.441 146.538 80.441 146.103L80.4406 98.1231C80.4406 97.6886 80.796 97.3325 81.2304 97.3325Z" fill="#484648"/>
<path fill-rule="evenodd" clip-rule="evenodd" d="M30.8669 79.5733L55.9004 78.7811V82.926L30.867 83.7182L30.8669 79.5733Z" fill="#666666"/>
<path fill-rule="evenodd" clip-rule="evenodd" d="M56.1339 60.1848V64.3297L31.0996 65.1211V60.9769L56.1339 60.1848Z" fill="#666666"/>
<path fill-rule="evenodd" clip-rule="evenodd" d="M31.9198 169.172L56.9532 168.379V172.524L31.9198 173.317V169.172Z" fill="#666666"/>
<path fill-rule="evenodd" clip-rule="evenodd" d="M56.1636 175.436V179.58L31.1301 180.373V176.229L56.1636 175.436Z" fill="#666666"/>
<path fill-rule="evenodd" clip-rule="evenodd" d="M56.1636 179.58L31.1301 180.373V176.229L56.1636 175.436V179.58ZM56.9532 172.524L31.9198 173.317V169.172L56.9532 168.379V172.524ZM58.5801 166.79L25.6127 168.418L25.6227 171.551C25.6529 180.735 33.1215 188.25 42.2869 188.25C42.8468 188.25 43.4007 188.222 43.9475 188.167C53.6093 186.637 58.3583 179.218 58.7283 172.511L58.6248 140.74L58.5802 140.73L58.58 164.243L58.5801 166.79Z" fill="#222222"/>
<path fill-rule="evenodd" clip-rule="evenodd" d="M31.0996 60.9769L56.1339 60.1848V64.3297L31.0996 65.1211V60.9769ZM30.8669 67.3067L55.9004 66.5145V70.6586L30.867 71.4509L30.8669 67.3067ZM30.8669 73.6454L55.9004 72.8532V76.9981L30.8669 77.7896V73.6454ZM30.8669 79.5733L55.9004 78.7811V82.926L30.867 83.7182L30.8669 79.5733ZM25.3511 88.0682L25.5793 88.0568L25.3486 87.3544L25.3511 88.0682ZM26.7366 87.9996L57.854 86.4633L57.8542 86.4992L58.4473 86.4699L58.3332 51.5061C50.3364 52.1171 43.4098 51.3412 36.4195 50.8618L36.4131 51.0725L29.224 50.8716C28.6078 50.7899 27.3177 50.5106 26.8931 51.0268C26.6266 51.6655 26.4408 83.5002 26.7366 87.9996Z" fill="#0A0909"/>
<path fill-rule="evenodd" clip-rule="evenodd" d="M3.94819 80.9927C8.70451 81.8568 19.9091 85.555 22.2359 88.2151C21.2546 88.1163 19.3598 86.6789 17.4763 85.796C13.5415 83.9518 8.17475 82.1043 3.80963 81.3202L0.894382 80.9233C-0.00129956 83.4021 2.18308 88.0454 3.16678 89.6731C3.22383 89.7679 3.28168 89.8626 3.33873 89.9573L4.22874 90.1272C4.64358 89.3987 4.44062 89.5784 5.20917 89.1308C6.13011 88.0936 23.9687 88.7861 26.7699 88.381C26.4276 85.8426 26.6168 51.6883 26.8931 51.0268C27.3177 50.5106 28.6078 50.7899 29.224 50.8716L36.4131 51.0725L36.4285 50.5636L36.2793 50.2631L36.162 50.0132C35.5809 48.276 34.2082 46.6571 33.372 45.2956C32.5358 43.9333 30.218 42.0205 29.9466 41.1515L29.4934 40.6574C28.751 40.9596 28.676 41.1654 28.2392 41.889C27.9074 42.4403 27.8569 42.549 27.5008 43.0635L25.9286 45.5415C24.9523 47.2934 24.0705 48.7815 23.1772 50.6967C21.4282 54.4488 20.1536 58.4819 19.5871 62.8318C18.949 67.7306 20.5432 72.0953 21.751 76.397L25.6102 88.1499C24.6794 88.1589 24.9433 87.8607 24.187 85.6751C23.8447 84.6877 23.5163 83.8709 23.1601 82.8451C20.8178 76.0988 20.0386 71.129 18.3679 64.5755C17.3801 60.7009 14.8373 39.4282 16.0794 36.3769C16.363 36.7591 16.3369 36.3801 16.3271 38.0291C16.3239 38.6735 16.3206 39.318 16.3223 39.9632C16.3345 45.0498 17.5652 61.0635 18.8423 64.1271C20.808 54.8057 20.6817 53.9301 25.4364 45.4892L28.6548 40.3903C28.4657 40.075 28.4592 40.1151 28.2742 39.9125C28.2367 39.8725 28.0639 39.7818 28.0411 39.6871C28.0232 39.6144 27.958 39.6152 27.9188 39.5768C27.654 39.2608 25.799 38.034 25.1715 37.6853C24.2734 37.1854 23.0003 36.6725 21.8406 36.3246C19.3614 35.5805 15.6092 35.7725 13.4755 36.6905C0.86831 42.1177 8.12013 53.7864 5.81532 66.4238C5.26275 69.4539 4.17639 70.8318 2.92455 73.1431C2.14297 74.5879 0.332854 78.6324 0.919652 80.3769C0.970181 80.4022 1.05168 80.3679 1.07939 80.4316L2.35485 80.6767C2.84792 80.76 3.42252 80.8972 3.94819 80.9927Z" fill="#434143"/>
</svg>
