<svg width="127" height="441" viewBox="0 0 127 441" fill="none" xmlns="http://www.w3.org/2000/svg">
<path fill-rule="evenodd" clip-rule="evenodd" d="M18.2964 52.9114C9.90262 83.015 14.3715 121.786 49.8244 167.61C-15.8065 121.596 7.42127 30.7489 27.681 0C35.0389 1.55848 79.4135 29.8885 105.638 85.1899C144.12 188.333 122.522 288.405 103.62 334.363C149.314 190.857 108.743 56.1906 30.8337 11.7073C30.2516 12.3452 24.8392 29.448 18.2964 52.9114Z" fill="#A79ECD"/>
<path d="M14.8487 163.215C28.7655 206.067 32.0329 213.221 74.7091 249.766C56.0074 243.453 41.2315 231.777 30.1192 217.851C23.6553 274.872 50.2215 296.882 68.8132 313.746C83.5767 327.138 60.0079 402.626 56.4426 424.794C56.3145 425.59 56.5561 427.633 57.83 428.25C58.5293 428.586 61.1012 427.504 61.224 427.211C63.829 421.024 73.3205 408.599 79.9892 359.651C86.1633 314.328 91.5797 190.405 83.2227 129.829C84.0089 132.125 84.9653 148.506 93.2156 191.703C99.5772 249.456 88.0217 386.672 80.3802 408.251C76.7495 422.301 72.9907 433.328 51.9118 441C49.7555 440.277 48.4901 432.461 48.153 423.04C47.7108 410.673 56.3556 392.674 60.3384 374.946C66.1789 348.956 67.5509 323.705 61.2394 318.905C13.6764 276.606 15.3096 226.323 22.0714 206.468C1.56275 172.915 -2.91169 129.342 1.60267 100.225C1.60471 100.097 1.61699 100.02 1.63746 99.9965C1.6262 100.073 1.61495 100.149 1.60267 100.225C1.53611 103.545 7.66918 141.108 14.8487 163.215Z" fill="#A79ECD" fill-opacity="0.301961"/>
</svg>
