<?xml version="1.0" encoding="UTF-8"?>
<svg id="Layer_1" data-name="Layer 1" xmlns="http://www.w3.org/2000/svg" viewBox="0 0 138 286.4">
  <defs>
    <style>
      .cls-1 {
        fill: #000;
        stroke-width: 0px;
      }
    </style>
  </defs>
  <path class="cls-1" d="M49,267.29v-72.1c0-10.6,9.13-19.11,20.5-19.11s20.5,8.51,20.5,19.11v72.1c0,10.6-9.13,19.11-20.5,19.11s-20.5-8.6-20.5-19.11Z"/>
  <path class="cls-1" d="M138,69c0,38.11-30.89,69-69,69S0,107.11,0,69,30.89,0,69,0s69,30.89,69,69ZM69.5,17c-28.44,0-51.5,23.06-51.5,51.5s23.06,51.5,51.5,51.5,51.5-23.06,51.5-51.5-23.06-51.5-51.5-51.5Z"/>
  <path class="cls-1" d="M82.26,136.44c-3.59.63-8.03,1.14-13.12,1.14-5.03,0-9.42-.5-12.99-1.11,0,12.26.01,24.53.02,36.79,1.99-1.06,6.69-3.24,13.13-3.21,6.25.03,10.82,2.15,12.82,3.21l.15-36.81Z"/>
  <path class="cls-1" d="M31.7,68.55c0,9.88,8.49,16.63,8.24,17.12-.26.52-10.82-4.43-10.82-17.12s10.55-17.64,10.82-17.12c.25.5-8.24,7.25-8.24,17.12Z"/>
</svg>