<svg width="242" height="178" viewBox="0 0 242 178" fill="none" xmlns="http://www.w3.org/2000/svg">
<path d="M61.8703 39.0449L60.9916 141M31.0439 65.6292H27.09C23.8144 65.6292 21.159 62.8826 21.159 59.4944C21.159 56.1062 23.8144 53.3595 27.09 53.3595H31.0439C34.3195 53.3595 36.9749 56.1062 36.9749 59.4944C36.9749 62.8826 34.3195 65.6292 31.0439 65.6292ZM23.4849 94.8427H34.649C35.9336 94.8427 36.9749 93.804 36.9749 92.5228V81.3873C36.9749 80.1061 35.9336 79.0674 34.649 79.0674H23.4849C22.2003 79.0674 21.159 80.1061 21.159 81.3873V92.5228C21.159 93.804 22.2003 94.8427 23.4849 94.8427ZM23.4849 124.056H34.649C35.9336 124.056 36.9749 123.018 36.9749 121.736V110.601C36.9749 109.32 35.9336 108.281 34.649 108.281H23.4849C22.2003 108.281 21.159 109.32 21.159 110.601V121.736C21.159 123.018 22.2003 124.056 23.4849 124.056ZM29.9456 141H116.054C130.936 141 143 128.967 143 114.124V63.8764C143 49.033 130.936 37 116.054 37H29.9456C15.064 37 3 49.033 3 63.8764V114.124C3 128.967 15.064 141 29.9456 141Z" stroke="white" stroke-width="5"/>
</svg>
