<svg width="259" height="225" viewBox="0 0 259 225" fill="none" xmlns="http://www.w3.org/2000/svg">
<path fill-rule="evenodd" clip-rule="evenodd" d="M84.9443 197.856H98.241C99.0507 197.856 99.7131 198.519 99.7131 199.329V222.8C99.7131 223.61 99.0507 224.272 98.241 224.272H84.9443C81.7056 224.272 79.0557 221.622 79.0557 218.384V203.745C79.0557 200.506 81.7056 197.856 84.9443 197.856Z" fill="#CCCCFF"/>
<path fill-rule="evenodd" clip-rule="evenodd" d="M93.6101 166.644C92.5937 153.129 92.6391 145.766 105.677 143.247C110.823 142.253 116.539 143.218 120.42 145.273C125.069 147.735 126.464 150.521 126.397 157.284C126.343 162.77 127.027 168.724 124.487 172.873C115.511 187.535 94.7222 181.426 93.6101 166.644ZM57.8067 216.814C58.8911 208.705 56.6431 204.656 61.0875 197.241C65.219 190.348 68.9887 191.313 78.268 191.211C93.5574 191.043 109.209 190.983 124.49 191.176C130.291 191.25 213.344 191.78 217.365 190.882C217.591 187.515 217.41 183.104 217.406 179.601C217.402 175.566 217.011 173.301 212.796 172.829C208.265 172.322 149.677 172.691 142.662 172.734C139.011 172.756 135.327 172.74 133.652 170.444C131.604 167.636 134.162 164.635 136.917 164.045C142.663 162.816 197.234 164.887 206.555 163.655C212.749 162.835 217.531 158.315 219.12 153.279C220.587 148.632 219.906 136.419 219.906 130.809C219.906 116.592 222.875 98.1003 211.899 92.2211C204.565 88.293 180.29 92.9898 168.714 88.6896C162.136 86.2464 159.241 82.5963 155.46 78.5443C153.524 76.4689 145.585 69.3586 142.148 68.525L131.118 73.544C129.326 74.3042 130.47 73.4915 129.409 74.719C130.234 76.8808 133.063 77.4858 134.799 78.4486C138.357 80.4222 141.893 83.3713 144.741 86.1428C146.387 87.7445 149.197 88.3843 148.43 90.3535C146.739 91.1437 74.2325 91.4723 71.5164 90.4692C70.6602 88.3781 73.0006 88.1352 74.6344 86.6572C79.8965 81.8973 81.0987 80.5568 88.209 76.8784C94.5611 73.5925 93.1787 76.3714 96.9672 70.0496C98.2389 67.9276 102.167 62.3004 102.554 60.3151C96.0692 60.2185 84.6278 64.5896 79.563 67.1883C61.0148 76.7047 61.6991 89.2508 41.9408 90.5828C32.8534 91.1953 20.1451 89.7378 11.8532 90.8637C3.46833 92.0023 -0.0607465 100.728 0.000790176 108.987C0.0770485 119.194 0.0269994 129.429 0.0128666 139.638C-0.0033273 151.18 -0.106976 157.611 8.1831 161.927C14.6712 165.305 28.9972 163.826 37.2396 163.826L82.0065 163.971C88.5302 164.757 87.5986 170.372 84.5748 171.919C81.4247 173.53 32.7707 172.725 24.775 172.725C5.61917 172.725 2.36921 170.619 2.49876 180.658C2.60829 189.141 1.21032 202.228 4.61868 209.122C9.01163 218.009 15.7807 216.913 27.3719 216.893L57.8067 216.814Z" fill="#383939"/>
<path fill-rule="evenodd" clip-rule="evenodd" d="M109.296 215.492C108.549 213.003 108.403 203.413 109.401 200.921C112.055 199.735 123.407 199.754 125.418 201.441C123.343 203.625 115.09 201.956 111.937 210.152C110.789 213.136 112.132 214.952 109.296 215.492ZM106.454 223.55C108.429 225.404 131.527 224.503 134.877 224.503L207.066 224.517C210.146 224.504 215.15 225.472 217.102 223.943L217.191 223.227C216.808 220.761 213.232 219.99 213.385 217.54C214.314 214.78 216.681 213.925 218.159 211.827C217.459 206.452 213.82 208.79 213.49 203.116C214.761 201.508 216.173 201.144 217.719 198.528C215.673 196.72 203.835 197.556 200.315 197.556C196.432 197.556 108.747 196.806 106.996 197.998C105.117 199.276 105.759 222.495 106.454 223.55Z" fill="#FDA505"/>
<path fill-rule="evenodd" clip-rule="evenodd" d="M12.6325 1.8355L22.9627 22.5389C24.6218 26.0359 26.0887 30.4551 29.1676 31.8486C37.9538 35.8255 29.0975 45.0687 24.4125 39.7733C22.3365 37.4269 23.1721 36.3581 23.8092 33.7695C24.3198 31.6946 20.475 25.2153 19.5399 23.3236C17.8086 19.8207 16.0747 16.5858 14.289 13.0158C12.9926 10.4244 10.7093 4.22513 8.67562 3.10952L6.53243 4.55196C6.22416 8.12992 10.5214 15.2181 10.4366 29.5355C10.3489 44.3432 7.72842 41.5537 17.021 50.2675L23.9773 57.3366C25.0841 58.7501 29.52 64.8899 30.484 65.3643C33.0005 66.6036 47.8533 57.8992 49.7061 56.5472C49.278 54.3051 48.1977 50.5072 47.4979 47.8431C46.6664 44.6777 46.5068 41.6904 45.6971 38.2378C43.6546 29.5267 47.078 26.7829 38.9652 22.1079C33.676 19.0599 29.6961 16.4259 25.834 12.3739C23.455 9.87766 22.4589 8.67107 20.6332 6.14895C19.0777 4.00017 17.4736 1.259 15.427 0L12.6325 1.8355Z" fill="#FDA505"/>
<path fill-rule="evenodd" clip-rule="evenodd" d="M130.202 35.2488C127.477 40.0243 127.848 38.0842 123.831 46.0095C122.648 48.345 121.722 50.0076 119.578 50.6009C113.408 52.3083 109.073 43.3823 120.137 37.6517C121.632 36.8774 132.705 30.8621 130.202 35.2488ZM147.345 40.9618C147.343 31.8614 143.158 18.5933 136.954 17.3252C134.74 18.9867 134.609 20.2395 132.831 22.2897C127.7 28.2066 122.547 29.1962 115.552 33.0624C94.3667 44.7726 113.386 76.2205 134.616 65.6371C142.055 61.9287 147.348 52.679 147.345 40.9618Z" fill="#7C02E4"/>
<path fill-rule="evenodd" clip-rule="evenodd" d="M120.063 166.125C117.133 177.593 101.14 175.833 99.7376 165.522C98.4716 156.219 102.35 158.367 110.468 158.402C116.715 158.428 122.516 156.526 120.063 166.125ZM93.6105 166.644C94.7226 181.427 115.511 187.536 124.487 172.874C127.027 168.725 126.343 162.771 126.397 157.284C126.464 150.521 125.069 147.736 120.42 145.273C116.539 143.218 110.823 142.253 105.677 143.247C92.6394 145.766 92.5941 153.13 93.6105 166.644Z" fill="#FEFEFE"/>
<path fill-rule="evenodd" clip-rule="evenodd" d="M28.9816 72.5753C28.6698 75.2229 29.5772 76.0921 30.4726 77.8062C36.4752 77.7 43.5793 69.7031 48.6898 71.6055C49.7033 75.2247 45.9475 76.057 42.7266 77.6051C40.133 78.8515 34.5726 80.5789 36.785 84.0141C39.6722 85.6311 48.4334 83.2109 51.1274 81.8306C54.5482 80.0781 58.72 75.9743 60.7666 73.161C60.3423 70.4104 58.6208 68.4433 57.7183 65.8902C58.4848 64.1831 59.4319 63.6381 58.3893 61.4166C56.4096 57.1979 52.1641 60.8769 45.7843 64.0562C40.6747 66.6025 33.0271 69.8506 28.9816 72.5753Z" fill="#383939"/>
<path fill-rule="evenodd" clip-rule="evenodd" d="M120.063 166.125C122.516 156.526 116.714 158.429 110.468 158.402C102.35 158.367 98.4713 156.219 99.7374 165.523C101.14 175.833 117.133 177.594 120.063 166.125Z" fill="#383939"/>
<path fill-rule="evenodd" clip-rule="evenodd" d="M96.2696 84.227C106.123 84.6186 106.254 85.337 113.002 79.3193C114.471 78.0097 114.632 77.5745 115.673 77.5804C118.779 77.5981 115.442 81.4337 115.341 83.9275L118.244 84.416C120.264 81.6804 123.655 74.9882 120.87 72.6163C119.976 71.8555 116.448 70.633 115.171 70.0032C106.516 65.7339 108.64 63.2627 102.015 74.0551C100.775 76.0764 96.2496 82.6729 96.2696 84.227Z" fill="#383939"/>
<path fill-rule="evenodd" clip-rule="evenodd" d="M237.889 217.907C240.122 218.511 257.092 214.347 257.912 212.346C259.496 208.483 251.798 207.428 249.499 206.834C246.697 206.11 240.471 204.093 237.827 204.667C237.426 207.652 237.32 215.028 237.889 217.907Z" fill="#383939"/>
<path fill-rule="evenodd" clip-rule="evenodd" d="M130.202 35.2484C132.705 30.8616 121.632 36.8769 120.137 37.6512C109.073 43.3818 113.408 52.3079 119.578 50.6004C121.722 50.0072 122.648 48.3445 123.831 46.009C127.848 38.0838 127.477 40.0238 130.202 35.2484Z" fill="#FEFEFE"/>
<path fill-rule="evenodd" clip-rule="evenodd" d="M109.296 215.491C112.132 214.952 110.79 213.136 111.938 210.152C115.09 201.955 123.344 203.625 125.418 201.44C123.407 199.754 112.055 199.735 109.402 200.921C108.403 203.413 108.549 213.003 109.296 215.491Z" fill="#FEFEFE"/>
<path fill-rule="evenodd" clip-rule="evenodd" d="M81.2053 215.71C84.041 215.171 82.6987 213.355 83.8467 210.371C86.9995 202.174 95.2527 203.844 97.3273 201.659C95.3163 199.972 83.9644 199.953 81.3107 201.14C80.3123 203.632 80.4586 213.222 81.2053 215.71Z" fill="#FEFEFE"/>
</svg>
