<svg width="101" height="34" viewBox="0 0 101 34" fill="none" xmlns="http://www.w3.org/2000/svg">
<path d="M21.4362 9.124C21.4362 5.796 20.0712 4.132 17.3412 4.132C16.2232 4.132 15.2742 4.392 14.4942 4.912C13.7142 5.432 13.3242 6.173 13.3242 7.135C13.3242 7.733 13.4802 8.162 13.7922 8.422C14.1302 8.656 14.5982 8.851 15.1962 9.007C15.7942 9.137 16.2102 9.254 16.4442 9.358C16.6782 9.436 16.8862 9.605 17.0682 9.865C17.2762 10.125 17.3802 10.502 17.3802 10.996C17.3802 11.49 17.1852 11.906 16.7952 12.244C16.4052 12.556 15.9242 12.712 15.3522 12.712C14.3382 12.712 13.3892 12.27 12.5052 11.386C11.6212 10.502 11.1792 9.449 11.1792 8.227C11.1792 6.563 11.8942 4.925 13.3242 3.313C14.7802 1.675 16.5092 0.855998 18.5112 0.855998C20.5132 0.855998 22.0342 1.467 23.0742 2.689C24.1402 3.911 24.6732 5.523 24.6732 7.525C24.6732 10.645 23.4772 14.298 21.0852 18.484C18.7192 22.67 16.3142 25.712 13.8702 27.61C13.3242 28.026 12.8562 28.234 12.4662 28.234C11.6082 28.234 10.9842 27.727 10.5942 26.713L6.22616 15.247C5.70616 13.921 5.14716 12.543 4.54916 11.113C3.95116 9.657 3.50916 8.578 3.22316 7.876C2.93716 7.174 2.65116 6.459 2.36516 5.731C1.89716 4.457 1.66316 3.534 1.66316 2.962C1.66316 2.364 1.80616 1.87 2.09216 1.48C2.37816 1.064 2.78116 0.855998 3.30116 0.855998C4.21116 0.855998 4.88716 1.389 5.32916 2.455C5.40716 2.663 5.61516 3.3 5.95316 4.366C9.04716 13.57 11.6212 20.356 13.6752 24.724C15.6512 22.982 17.4322 20.642 19.0182 17.704C20.6302 14.74 21.4362 11.88 21.4362 9.124ZM33.198 20.239L28.557 19.849C28.115 19.849 27.764 19.888 27.504 19.966C27.66 21.448 28.284 22.683 29.376 23.671C30.494 24.659 31.807 25.153 33.315 25.153C34.771 25.153 36.084 24.62 37.254 23.554C37.67 23.19 37.982 23.008 38.19 23.008C38.398 23.008 38.58 23.086 38.736 23.242C38.892 23.398 38.97 23.567 38.97 23.749C38.97 24.503 38.229 25.439 36.747 26.557C35.291 27.675 33.627 28.234 31.755 28.234C29.909 28.234 28.297 27.48 26.919 25.972C25.567 24.464 24.891 22.592 24.891 20.356C24.891 17.496 25.97 15.091 28.128 13.141C30.286 11.191 32.665 10.216 35.265 10.216C36.357 10.216 37.241 10.411 37.917 10.801C38.619 11.165 38.97 11.646 38.97 12.244C38.97 12.816 38.788 13.284 38.424 13.648C38.086 14.012 37.748 14.194 37.41 14.194C37.072 14.194 36.487 14.038 35.655 13.726C34.849 13.414 34.069 13.258 33.315 13.258C31.911 13.258 30.689 13.687 29.649 14.545C28.635 15.377 27.959 16.417 27.621 17.665L33.003 17.353C34.199 17.353 34.797 17.821 34.797 18.757C34.797 19.745 34.264 20.239 33.198 20.239ZM49.1198 13.258C47.4038 13.258 45.9998 13.856 44.9078 15.052C43.8418 16.222 43.3088 17.626 43.3088 19.264C43.3088 20.902 43.8678 22.293 44.9858 23.437C46.1298 24.581 47.5208 25.153 49.1588 25.153C50.6148 25.153 51.9278 24.62 53.0978 23.554C53.5138 23.19 53.8258 23.008 54.0338 23.008C54.2418 23.008 54.4238 23.086 54.5798 23.242C54.7358 23.398 54.8138 23.567 54.8138 23.749C54.8138 24.503 54.0728 25.439 52.5908 26.557C51.1348 27.675 49.4708 28.234 47.5988 28.234C45.7528 28.234 44.1408 27.48 42.7628 25.972C41.4108 24.464 40.7348 22.592 40.7348 20.356C40.7348 17.496 41.8138 15.091 43.9718 13.141C46.1298 11.191 48.5088 10.216 51.1088 10.216C52.2008 10.216 53.0848 10.411 53.7608 10.801C54.4628 11.165 54.8138 11.646 54.8138 12.244C54.8138 12.816 54.6318 13.284 54.2678 13.648C53.9298 14.012 53.5918 14.194 53.2538 14.194C52.9158 14.194 52.3308 14.038 51.4988 13.726C50.6928 13.414 49.8998 13.258 49.1198 13.258ZM66.0647 13.102C65.9347 13.102 64.3097 12.998 61.1897 12.79C61.1897 13.128 61.1377 14.415 61.0337 16.651C60.9297 18.887 60.8777 20.551 60.8777 21.643C60.8777 22.709 61.1117 23.606 61.5797 24.334C62.0737 25.036 62.3207 25.673 62.3207 26.245C62.3207 26.817 62.1257 27.298 61.7357 27.688C61.3457 28.052 60.9037 28.234 60.4097 28.234C59.1097 28.234 58.4597 27.207 58.4597 25.153L58.3037 17.236C58.3037 15.624 58.2647 14.181 58.1867 12.907H57.2507C56.8867 12.907 56.5877 12.803 56.3537 12.595C56.1197 12.361 56.0027 12.049 56.0027 11.659C56.0027 11.269 56.1197 10.97 56.3537 10.762C56.5877 10.528 56.8867 10.411 57.2507 10.411H58.0697C58.0177 9.059 57.9917 8.032 57.9917 7.33C57.9917 6.602 58.1607 6.03 58.4987 5.614C58.8627 5.172 59.2917 4.951 59.7857 4.951C60.2797 4.951 60.6827 5.159 60.9947 5.575C61.3067 5.965 61.4627 6.615 61.4627 7.525C61.4627 8.435 61.4237 9.436 61.3457 10.528L66.0647 10.216C67.0787 10.216 67.5857 10.697 67.5857 11.659C67.5857 12.621 67.0787 13.102 66.0647 13.102ZM71.6849 15.013C70.5409 16.157 69.9689 17.561 69.9689 19.225C69.9689 20.889 70.5409 22.306 71.6849 23.476C72.8549 24.62 74.2589 25.192 75.8969 25.192C77.5609 25.192 78.9519 24.62 80.0699 23.476C81.1879 22.306 81.7469 20.889 81.7469 19.225C81.7469 17.561 81.1879 16.157 80.0699 15.013C78.9519 13.869 77.5609 13.297 75.8969 13.297C74.2589 13.297 72.8549 13.869 71.6849 15.013ZM73.2449 28.234C71.5809 28.234 70.1899 27.584 69.0719 26.284C67.9539 24.984 67.3949 23.359 67.3949 21.409C67.3949 19.433 68.0059 17.535 69.2279 15.715C70.4499 13.869 71.8799 12.491 73.5179 11.581C75.1559 10.671 76.8069 10.216 78.4709 10.216C80.1349 10.216 81.5259 10.866 82.6439 12.166C83.7619 13.466 84.3209 15.104 84.3209 17.08C84.3209 19.03 83.7099 20.928 82.4879 22.774C81.2659 24.594 79.8359 25.959 78.1979 26.869C76.5599 27.779 74.9089 28.234 73.2449 28.234ZM91.2775 18.835L91.5895 25.894C91.5895 26.596 91.4075 27.168 91.0435 27.61C90.7055 28.026 90.2895 28.234 89.7955 28.234C89.3015 28.234 88.8985 28.039 88.5865 27.649C88.2745 27.233 88.1185 26.674 88.1185 25.972C88.1185 25.27 88.1835 24.269 88.3135 22.969C88.5735 20.369 88.7035 18.172 88.7035 16.378C88.7035 15.598 88.4565 14.857 87.9625 14.155C87.4945 13.427 87.2605 12.777 87.2605 12.205C87.2605 11.633 87.4555 11.165 87.8455 10.801C88.2355 10.411 88.6775 10.216 89.1715 10.216C90.4715 10.216 91.1215 11.243 91.1215 13.297V14.818C91.9015 13.414 92.8375 12.296 93.9295 11.464C95.0215 10.632 96.0225 10.216 96.9325 10.216C97.8425 10.216 98.5315 10.45 98.9995 10.918C99.4935 11.36 99.7405 11.958 99.7405 12.712C99.7405 13.466 99.5585 14.103 99.1945 14.623C98.8305 15.117 98.4405 15.364 98.0245 15.364C97.6085 15.364 97.2835 15.26 97.0495 15.052C96.8415 14.818 96.6855 14.584 96.5815 14.35C96.4775 14.09 96.2825 13.856 95.9965 13.648C95.7105 13.414 95.3465 13.297 94.9045 13.297C94.1505 13.297 93.3965 13.791 92.6425 14.779C91.8885 15.767 91.4335 17.119 91.2775 18.835Z" fill="url(#paint0_linear_926_175)"/>
<path d="M0.493164 31.9H100.521V33.85H0.493164V31.9Z" fill="url(#paint1_linear_926_175)"/>
<defs>
<linearGradient id="paint0_linear_926_175" x1="53.1671" y1="-6.60172" x2="53.1671" y2="39" gradientUnits="userSpaceOnUse">
<stop offset="0.5" stop-color="#9C7BFF"/>
<stop offset="1"/>
</linearGradient>
<linearGradient id="paint1_linear_926_175" x1="53.1671" y1="-6.60172" x2="53.1671" y2="39" gradientUnits="userSpaceOnUse">
<stop offset="0.5" stop-color="#9C7BFF"/>
<stop offset="1"/>
</linearGradient>
</defs>
</svg>
