<svg width="56" height="39" viewBox="0 0 56 39" fill="none" xmlns="http://www.w3.org/2000/svg">
<path fill-rule="evenodd" clip-rule="evenodd" d="M55.2336 20.9666L55.3186 17.6146C52.3381 17.4505 48.9739 17.5892 45.9646 17.5904C42.4784 17.5915 40.6072 17.5526 38.3357 19.3006C35.4232 21.5419 34.1562 28.1731 33.5134 33.0857C32.1161 31.1664 31.6013 7.43932 29.0853 3.48442C27.6298 1.1963 25.1205 1.65815 24.3257 4.15075C22.5652 9.67453 21.4431 23.3137 20.0791 25.273C18.4773 22.6886 17.7308 18.8758 13.7494 17.8557C11.4417 17.2646 2.89806 17.553 0.0135227 17.6112L0.00292969 20.9738C2.39159 20.9859 4.7383 20.9772 7.08463 20.9772C8.93736 20.9776 12.2607 20.673 13.6546 21.475C16.3993 23.0541 16.4862 29.2011 20.2045 29.2404C23.5365 29.2755 24.3847 22.9467 24.8983 19.7712C25.2048 17.8776 26.4525 8.66616 26.8712 7.62754C27.8622 9.90055 28.7485 27.0362 29.8846 32.9315C30.368 35.44 31.1447 38.7633 34.1555 37.9851C36.3174 37.4264 36.7108 34.1712 37.1946 31.5928C37.6818 28.9959 38.0269 26.134 39.1127 23.9135C40.4908 21.0955 41.8642 20.9908 45.6445 20.9787C48.7188 20.9689 52.2183 21.1405 55.2336 20.9666Z" fill="white"/>
<path fill-rule="evenodd" clip-rule="evenodd" d="M55.2336 17.1338L55.3186 20.4858C52.3381 20.6498 48.9739 20.5112 45.9646 20.51C42.4784 20.5089 40.6072 20.5478 38.3357 18.7998C35.4232 16.5585 34.1562 9.92737 33.5134 5.01474C32.1161 6.93398 31.6013 30.6611 29.0853 34.616C27.6298 36.9041 25.1205 36.4422 24.3257 33.9496C22.5652 28.4259 21.4431 14.7867 20.0791 12.8274C18.4773 15.4118 17.7308 19.2246 13.7494 20.2447C11.4417 20.8358 2.89806 20.5474 0.0135227 20.4892L0.00292969 17.1266C2.39159 17.1145 4.7383 17.1232 7.08463 17.1232C8.93736 17.1228 12.2607 17.4274 13.6546 16.6254C16.3993 15.0463 16.4862 8.89931 20.2045 8.86C23.5365 8.82485 24.3847 15.1537 24.8983 18.3293C25.2048 20.2228 26.4525 29.4342 26.8712 30.4728C27.8622 28.1998 28.7485 11.0643 29.8846 5.16895C30.368 2.66047 31.1447 -0.662863 34.1555 0.115342C36.3174 0.673956 36.7108 3.92926 37.1946 6.50765C37.6818 9.10457 38.0269 11.9664 39.1127 14.1869C40.4908 17.0049 41.8642 17.1096 45.6445 17.1217C48.7188 17.1315 52.2183 16.9599 55.2336 17.1338Z" fill="white"/>
</svg>
