<svg width="454" height="597" viewBox="0 0 454 597" fill="none" xmlns="http://www.w3.org/2000/svg">
<g filter="url(#filter0_iiiiii_676_225)">
<path d="M233.347 420.243L233.094 389.157L233.09 388.661H220.469V424.038C220.469 433.646 220.595 442.369 220.753 448.691C220.832 451.852 220.919 454.415 221.002 456.189C221.043 457.076 221.084 457.77 221.123 458.244C221.142 458.48 221.162 458.671 221.182 458.807C221.191 458.871 221.204 458.941 221.221 459.002C221.228 459.029 221.243 459.082 221.273 459.139C221.288 459.166 221.32 459.22 221.376 459.273C221.433 459.328 221.552 459.414 221.727 459.414C221.849 459.414 221.953 459.371 221.987 459.357C222.042 459.335 222.1 459.307 222.156 459.277C222.27 459.218 222.411 459.136 222.573 459.038C222.899 458.841 223.339 458.561 223.858 458.23C224.901 457.567 226.284 456.687 227.791 455.808L227.812 455.796L227.83 455.783L233.137 451.992L233.347 451.843V420.243ZM166.121 388.679L165.639 388.662L92.1348 386.14L137.53 282.882L137.535 282.87L137.54 282.857L166.089 207.375L166.203 207.073L84.8496 125.72C52.6272 93.371 32.2863 72.7769 19.8115 59.7969C13.5735 53.3062 9.30664 48.7239 6.50684 45.5303C5.10683 43.9333 4.0779 42.6893 3.35449 41.7305C2.62373 40.7619 2.22949 40.1156 2.06641 39.708L2.06152 39.6963L1.92676 39.374C0.576533 36.0213 0.340378 32.1283 0.584961 26.0137V26.0107C0.711125 22.2258 0.962801 19.8799 1.54297 17.9561C2.11938 16.0448 3.02885 14.5179 4.53516 12.3838L4.53613 12.3848C8.25485 7.17856 15.7251 2.19915 22.416 0.959961L22.4199 0.958984C30.1055 -0.528554 38.8031 1.70573 45.0107 6.67188C45.142 6.77689 45.6891 7.30214 46.6465 8.25098C47.5892 9.18529 48.9037 10.5031 50.5479 12.1611C53.8363 15.4772 58.4402 20.1519 64.0156 25.8379C75.1665 37.2098 90.203 52.6263 106.377 69.3057L165.263 129.96L165.41 130.111H288.405L288.553 129.959L347.943 68.5469C367.655 48.2033 383.006 32.6004 393.901 21.7998C399.349 16.3993 403.681 12.202 406.886 9.21387C408.488 7.7196 409.806 6.52954 410.84 5.64453C411.878 4.75587 412.606 4.19414 413.04 3.93262C424.927 -3.0014 441.318 0.951345 449.521 12.3711H449.522C451.031 14.6344 451.875 16.0909 452.391 18.2139C452.913 20.3649 453.103 23.2182 453.229 28.2803V28.2891C453.356 31.3154 453.419 34.4654 453.388 37.0762C453.372 38.3817 453.333 39.5478 453.267 40.4941C453.2 41.4528 453.107 42.149 452.996 42.5361L452.994 42.5439L452.991 42.5527C452.987 42.5622 452.97 42.603 452.922 42.6846C452.865 42.7804 452.781 42.9063 452.666 43.0645C452.437 43.3803 452.103 43.8013 451.66 44.3301C450.775 45.3866 449.474 46.8509 447.754 48.7246C444.315 52.4711 439.216 57.8378 432.457 64.8184C418.939 78.7787 398.786 99.1844 371.998 125.973H371.997L291.63 206.593L291.396 206.828L291.522 207.136L366.286 388.661H291.484V477.409L233.505 535.389C201.901 566.866 186.635 582.131 177.624 589.535C173.123 593.234 170.229 594.929 167.677 595.718C165.12 596.508 162.874 596.402 159.556 596.402C144.174 596.15 132.762 584.254 132.762 568.598C132.762 565.374 132.827 562.962 133.608 560.42C134.389 557.88 135.896 555.171 138.847 551.404C144.762 543.853 156.357 532.193 179.116 509.308L221.67 466.754H143.887C106.732 466.754 87.535 466.691 76.6777 466.344C65.8446 465.997 63.3593 465.369 59.6279 464.25C44.6464 459.506 35.2518 446.314 37.4766 432.713C39.2175 422.267 47.4367 412.579 56.5859 409.859L56.5938 409.856L56.6016 409.854C57.289 409.625 58.8973 409.405 61.5615 409.215C64.2004 409.026 67.8171 408.868 72.4736 408.742C81.786 408.49 95.2381 408.363 113.307 408.363H166.121V388.679Z" fill="#251A2E" stroke="black"/>
<path d="M22.3253 0.46825C15.5017 1.73188 7.9199 6.78641 4.129 12.0937C1.09628 16.39 0.338107 18.4118 0.0853804 25.9936C-0.167346 32.3118 0.0853765 36.3554 1.60174 39.8936C3.11809 43.6845 20.0508 61.3753 84.496 126.073L165.621 207.199L137.072 282.68L91.3816 386.614L165.621 389.162V407.863H113.307C77.167 407.863 59.4761 408.369 56.4434 409.38C47.0925 412.16 38.7525 422.016 36.9834 432.631C34.7089 446.53 44.3125 459.925 59.4761 464.727C67.0579 467.001 69.5852 467.254 143.887 467.254H220.463L178.763 508.954C133.272 554.697 132.261 555.708 132.261 568.597C132.261 584.519 143.887 596.65 159.556 596.903C172.698 596.903 170.676 598.672 233.857 535.743L291.984 477.616V389.162H367.033L291.984 206.946L372.352 126.326C425.93 72.748 452.971 44.6954 453.477 42.6736C453.982 40.9045 453.982 34.3336 453.729 28.2682C453.477 18.1591 452.971 16.6427 449.939 12.0937C441.599 0.468251 424.919 -3.57537 412.788 3.50097C408.997 5.77551 387.01 27.51 347.584 68.1989L288.194 129.611H227.034H165.621L106.736 68.9571C74.387 35.5972 46.587 7.29187 45.3234 6.28096C39.0053 1.22643 30.1598 -1.04811 22.3253 0.46825ZM232.846 420.247V451.585L227.539 455.376C224.507 457.145 221.979 458.914 221.727 458.914C221.474 458.914 220.968 443.245 220.968 424.038V389.162H226.781H232.594L232.846 420.247Z" fill="black" fill-opacity="0.02"/>
<path d="M218.947 1.73197C205.552 4.25923 190.136 15.1265 182.048 27.7628C164.61 55.31 176.489 93.9771 206.31 106.866C233.857 118.492 265.448 106.361 278.843 78.8135C282.634 70.979 283.392 68.199 283.645 59.3536C284.15 47.9809 281.623 36.8609 276.315 28.2682C271.261 20.181 261.152 11.0828 252.306 6.7865C240.428 0.973789 230.572 -0.54257 218.947 1.73197Z" fill="black"/>
<path d="M219.043 2.22266C230.548 -0.0282265 240.294 1.46428 252.087 7.23535L252.088 7.23633C260.849 11.4915 270.885 20.5243 275.89 28.5303V28.5312C281.135 37.0242 283.646 48.0406 283.145 59.3311V59.3389C283.018 63.7529 282.766 66.616 282.085 69.3418C281.403 72.0683 280.286 74.6825 278.393 78.5947C265.111 105.91 233.799 117.924 206.504 106.405C176.97 93.637 165.198 55.3196 182.47 28.0322C190.491 15.4993 205.794 4.72277 219.039 2.22363L219.043 2.22266Z" fill="#9C7BFF" fill-opacity="0.02" stroke="black"/>
</g>
<defs>
<filter id="filter0_iiiiii_676_225" x="-100" y="-100" width="653.896" height="796.908" filterUnits="userSpaceOnUse" color-interpolation-filters="sRGB">
<feFlood flood-opacity="0" result="BackgroundImageFix"/>
<feBlend mode="normal" in="SourceGraphic" in2="BackgroundImageFix" result="shape"/>
<feColorMatrix in="SourceAlpha" type="matrix" values="0 0 0 0 0 0 0 0 0 0 0 0 0 0 0 0 0 0 127 0" result="hardAlpha"/>
<feOffset dy="1"/>
<feGaussianBlur stdDeviation="20"/>
<feComposite in2="hardAlpha" operator="arithmetic" k2="-1" k3="1"/>
<feColorMatrix type="matrix" values="0 0 0 0 0.890196 0 0 0 0 0.929412 0 0 0 0 0.937255 0 0 0 0.2 0"/>
<feBlend mode="normal" in2="shape" result="effect1_innerShadow_676_225"/>
<feColorMatrix in="SourceAlpha" type="matrix" values="0 0 0 0 0 0 0 0 0 0 0 0 0 0 0 0 0 0 127 0" result="hardAlpha"/>
<feOffset dy="4"/>
<feGaussianBlur stdDeviation="9"/>
<feComposite in2="hardAlpha" operator="arithmetic" k2="-1" k3="1"/>
<feColorMatrix type="matrix" values="0 0 0 0 0.603922 0 0 0 0 0.572549 0 0 0 0 0.823529 0 0 0 0.3 0"/>
<feBlend mode="normal" in2="effect1_innerShadow_676_225" result="effect2_innerShadow_676_225"/>
<feColorMatrix in="SourceAlpha" type="matrix" values="0 0 0 0 0 0 0 0 0 0 0 0 0 0 0 0 0 0 127 0" result="hardAlpha"/>
<feOffset dy="98"/>
<feGaussianBlur stdDeviation="50"/>
<feComposite in2="hardAlpha" operator="arithmetic" k2="-1" k3="1"/>
<feColorMatrix type="matrix" values="0 0 0 0 0.792157 0 0 0 0 0.67451 0 0 0 0 1 0 0 0 0.3 0"/>
<feBlend mode="normal" in2="effect2_innerShadow_676_225" result="effect3_innerShadow_676_225"/>
<feColorMatrix in="SourceAlpha" type="matrix" values="0 0 0 0 0 0 0 0 0 0 0 0 0 0 0 0 0 0 127 0" result="hardAlpha"/>
<feOffset dy="-82"/>
<feGaussianBlur stdDeviation="34"/>
<feComposite in2="hardAlpha" operator="arithmetic" k2="-1" k3="1"/>
<feColorMatrix type="matrix" values="0 0 0 0 0.376471 0 0 0 0 0.266667 0 0 0 0 0.564706 0 0 0 0.3 0"/>
<feBlend mode="normal" in2="effect3_innerShadow_676_225" result="effect4_innerShadow_676_225"/>
<feColorMatrix in="SourceAlpha" type="matrix" values="0 0 0 0 0 0 0 0 0 0 0 0 0 0 0 0 0 0 127 0" result="hardAlpha"/>
<feOffset dy="7"/>
<feGaussianBlur stdDeviation="5.5"/>
<feComposite in2="hardAlpha" operator="arithmetic" k2="-1" k3="1"/>
<feColorMatrix type="matrix" values="0 0 0 0 1 0 0 0 0 1 0 0 0 0 1 0 0 0 1 0"/>
<feBlend mode="normal" in2="effect4_innerShadow_676_225" result="effect5_innerShadow_676_225"/>
<feColorMatrix in="SourceAlpha" type="matrix" values="0 0 0 0 0 0 0 0 0 0 0 0 0 0 0 0 0 0 127 0" result="hardAlpha"/>
<feOffset dy="39"/>
<feGaussianBlur stdDeviation="28"/>
<feComposite in2="hardAlpha" operator="arithmetic" k2="-1" k3="1"/>
<feColorMatrix type="matrix" values="0 0 0 0 1 0 0 0 0 1 0 0 0 0 1 0 0 0 0.5 0"/>
<feBlend mode="normal" in2="effect5_innerShadow_676_225" result="effect6_innerShadow_676_225"/>
</filter>
</defs>
</svg>
