<?xml version="1.0" encoding="UTF-8"?>
<!DOCTYPE svg PUBLIC "-//W3C//DTD SVG 1.1//EN" "http://www.w3.org/Graphics/SVG/1.1/DTD/svg11.dtd">
<!-- Creator: CorelDRAW (OEM Version) -->
<svg xmlns="http://www.w3.org/2000/svg" xml:space="preserve" width="8.5in" height="11in" version="1.1" style="shape-rendering:geometricPrecision; text-rendering:geometricPrecision; image-rendering:optimizeQuality; fill-rule:evenodd; clip-rule:evenodd"
viewBox="0 0 8500 11000"
 xmlns:xlink="http://www.w3.org/1999/xlink"
 xmlns:xodm="http://www.corel.com/coreldraw/odm/2003">
 <defs>
  <style type="text/css">
   <![CDATA[
    .fil3 {fill:#CCE7D4}
    .fil2 {fill:#6B809B}
    .fil1 {fill:#C8C5E2}
    .fil0 {fill:#585570}
   ]]>
  </style>
 </defs>
 <g id="Layer_x0020_1">
  <metadata id="CorelCorpID_0Corel-Layer"/>
  <g id="_2110494512784">
   <path class="fil0" d="M1346.43 544.75l312.34 0c377.86,0 687.02,309.15 687.02,687.02l0 0c0,377.86 -309.15,687.02 -687.02,687.02l-312.34 0c-377.86,0 -687.02,-309.15 -687.02,-687.02l0 -0c0,-377.86 309.15,-687.02 687.02,-687.02z"/>
   <path class="fil1" d="M1346.43 446.12l312.34 0c377.86,0 687.02,309.15 687.02,687.02l0 0c0,377.86 -309.15,687.02 -687.02,687.02l-312.34 0c-377.86,0 -687.02,-309.15 -687.02,-687.02l0 -0c0,-377.86 309.15,-687.02 687.02,-687.02z"/>
   <g>
    <path class="fil2" d="M1442.38 1639.74l-63.16 -157.97 -65.27 -163.24c234.25,-0.82 338.29,-3.89 572.54,-4.72 84.45,-52.49 167.76,-47.5 239.61,-19.19 125.78,144.25 44.53,292.38 -20.35,350.26l-663.37 -5.15z"/>
    <path class="fil2" d="M1566.02 977.02l278.61 -335.08c-234.22,3.39 -494.28,13.8 -728.51,17.19 -85.38,-50.96 -168.58,-44.48 -239.92,-14.88 -123.16,146.49 -39.26,293.13 26.65,349.85l663.17 -17.08z"/>
    <path class="fil3" d="M1675.74 1382.1l-205.34 254.97c-8.96,10.13 -36.3,5.04 -45.01,-5.22l-160.74 -189.28c-8.72,-10.26 -14.72,-39.68 -6.16,-50.11l212.33 -254.22c8.55,-10.44 42.58,-14.89 50.44,-3.96l105.65 87.41 -11.83 15.19 -6.59 6.81 -5.09 4.52 74.42 103.23c7.88,10.92 6.88,20.55 -2.07,30.67z"/>
    <path class="fil2" d="M1403.11 1209.72c162.64,-173.65 264.28,-524.41 302.16,-564.56 311.02,-59.4 342.55,157.34 307.05,295.52l-348 455.62 -406.97 -2.18 145.77 -184.4z"/>
    <path class="fil3" d="M1920.34 1332.34c64.07,-29.16 175.64,-40.99 206.95,-21.78 77.04,47.22 57.1,237.51 -25.03,293.23 -163.35,110.8 -311.22,-212.61 -181.92,-271.45z"/>
    <path class="fil3" d="M1082.62 678.26c-64.59,-28 -176.35,-37.82 -207.31,-18.06 -76.19,48.6 -52.82,238.5 30.3,292.74 165.31,107.84 307.35,-218.18 177.01,-274.68z"/>
   </g>
  </g>
 </g>
</svg>
